<?xml version="1.0" encoding="UTF-8" standalone="no"?>
<svg width="64px" height="64px" viewBox="0 0 64 64" version="1.1" xmlns="http://www.w3.org/2000/svg" xmlns:xlink="http://www.w3.org/1999/xlink" xmlns:sketch="http://www.bohemiancoding.com/sketch/ns">
    <!-- Generator: Sketch 3.2.2 (9983) - http://www.bohemiancoding.com/sketch -->
    <title>citycom_adcadmin/infrastructure</title>
    <desc>Created with Sketch.</desc>
    <defs></defs>
    <g id="ADC" stroke="none" stroke-width="1" fill="none" fill-rule="evenodd" sketch:type="MSPage">
        <g id="adc_admin" sketch:type="MSArtboardGroup" transform="translate(-370.000000, -294.000000)">
            <g id="infrastructure" sketch:type="MSLayerGroup" transform="translate(370.000000, 294.000000)">
                <g id="Group" transform="translate(6.666667, 5.333333)" sketch:type="MSShapeGroup">
                    <g id="data-6" transform="translate(27.000000, 27.333333)" stroke-opacity="0.598845109" stroke="#979797">
                        <g id="data">
                            <path d="M0.239863786,1.82553188 L0.239863786,13.0474159 C0.236959933,13.0563579 0.235676181,13.0650647 0.235676181,13.0740607 C0.235676181,13.0830567 0.236959933,13.0939839 0.239863786,13.1029258 L0.239863786,13.1251298 L0.248238995,13.1251298 C0.575905327,13.6781912 6.42673816,14.1176471 13.5899475,14.1176471 C20.7508976,14.1176471 26.6006088,13.6779453 26.9316561,13.1251298 L26.9442189,13.1251298 L26.9442189,13.1029258 C26.9471227,13.0939839 26.9484065,13.0830567 26.9484065,13.0740607 C26.9484065,13.0650647 26.9471227,13.0563579 26.9442189,13.0474159 L26.9442189,1.82553188 C26.9432085,1.82629313 26.9411154,1.82699187 26.9400313,1.82775227 C26.697839,2.38693338 20.8096313,2.8335919 13.5899475,2.8335919 C6.37026379,2.8335919 0.486242345,2.38693338 0.24405139,1.82775227 C0.242967303,1.82699187 0.240872831,1.82629313 0.239863786,1.82553188 L0.239863786,1.82553188 Z" id="path5588"></path>
                            <path d="M26.949458,1.07747486 C26.949458,1.67067878 20.9691393,2.15156557 13.5920424,2.15156557 C6.21494543,2.15156557 0.234626748,1.67067878 0.234626748,1.07747486 C0.234626677,0.693739203 2.7805357,0.339152831 6.9133345,0.147285001 C11.0461333,-0.0445828286 16.1379514,-0.0445828286 20.2707502,0.147285001 C24.4035491,0.339152831 26.9494581,0.693739203 26.949458,1.07747486 L26.949458,1.07747486 Z" id="path5584"></path>
                            <path d="M0.239863786,14.3745515 L0.239863786,25.5964355 C0.236959933,25.6053775 0.235676181,25.6140843 0.235676181,25.6230803 C0.235676181,25.6320763 0.236959933,25.6430035 0.239863786,25.6519455 L0.239863786,25.6741494 L0.248238995,25.6741494 C0.575905327,26.2272108 6.42673816,26.6666667 13.5899475,26.6666667 C20.7508976,26.6666667 26.6006088,26.2269649 26.9316561,25.6741494 L26.9442189,25.6741494 L26.9442189,25.6519455 C26.9471227,25.6430035 26.9484065,25.6320763 26.9484065,25.6230803 C26.9484065,25.6140843 26.9471227,25.6053775 26.9442189,25.5964355 L26.9442189,14.3745515 C26.9432085,14.3753127 26.9411154,14.3760115 26.9400313,14.3767719 C26.697839,14.935953 20.8096313,15.3826115 13.5899475,15.3826115 C6.37026379,15.3826115 0.486242345,14.935953 0.24405139,14.3767719 C0.242967303,14.3760115 0.240872831,14.3753127 0.239863786,14.3745515 L0.239863786,14.3745515 Z" id="path5588"></path>
                            <path d="M26.949458,13.6264945 C26.949458,14.2196984 20.9691393,14.7005852 13.5920424,14.7005852 C6.21494543,14.7005852 0.234626748,14.2196984 0.234626748,13.6264945 C0.234626677,13.2427588 2.7805357,12.8881724 6.9133345,12.6963046 C11.0461333,12.5044368 16.1379514,12.5044368 20.2707502,12.6963046 C24.4035491,12.8881724 26.9494581,13.2427588 26.949458,13.6264945 L26.949458,13.6264945 Z" id="path5584"></path>
                        </g>
                    </g>
                    <g id="Computer-2" transform="translate(28.343619, 0.121978)" stroke="#000000" stroke-width="0.5" fill="#FFFFFF">
                        <rect id="Rectangle-52" stroke-opacity="0.600000024" fill-opacity="0.6" x="0" y="0" width="23.7094932" height="18.9101802" rx="0.495158013"></rect>
                        <rect id="Rectangle-53" stroke-opacity="0.600000024" fill-opacity="0.9" x="2.55954756" y="2.52990864" width="18.5903987" height="14.3139564" rx="0.495158013"></rect>
                        <path d="M8.88421906,19.0439255 C8.88421906,19.0439255 15.458057,19.060869 15.458057,19.060869 C15.458057,19.0608691 14.3187844,21.0055862 18.011553,22.5809639 C21.7043216,24.1563417 1.74153426,24.4130956 6.0449841,22.5809639 C10.3484339,20.7488321 8.88421906,19.0439255 8.88421906,19.0439255 Z" id="Path-146" stroke-opacity="0.6" fill-opacity="0.6"></path>
                    </g>
                    <g id="ether" transform="translate(0.333333, 1.666667)">
                        <path d="M20.5876878,5.46826245 L21.3055712,5.46826245 L21.3156866,11.9309925 L20.5674715,11.9309925 L20.5472407,14.6074766 L4.95604494,14.6074766 L4.95604494,2.72649806 L20.5472407,2.72649806 L20.587683,5.46826245 L20.5876878,5.46826245 Z" id="2" fill-opacity="0.25" fill="#000000"></path>
                        <path d="M12.8080878,5.90027572 L10.2684625,6.73803701 L10.2684625,11.198844 L12.8080878,12.0039653 L12.8080878,16.954373 L2.19292131,16.976133 L1.29822782,16.932613 L1.0792142,16.8455727 L0.808942227,16.6388525 L0.589928725,16.323332 L0.380234854,15.8337312 L0.249758793,15.2897304 L0.170541093,14.8001297 L0.119282621,14.1255686 L0.114622971,4.27915314 L0.10530367,3.87659262 L0.123943155,3.40875185 L0.193841112,2.86475081 L0.254419327,2.58187055 L0.384895388,2.14666978 L0.580609645,1.73322914 L0.841561878,1.36330854 L1.19105155,1.0804281 L1.48462288,0.928107871 L2.25816006,0.971627948 L8.23676327,0.971627948 L12.8080889,0.928107871 L12.8080889,5.90027572 L12.8080878,5.90027572 Z" id="3" opacity="0.697936101" fill="#FFFFFF"></path>
                        <path d="M5.63014068,11.0488024 L9.20601217,11.0488024 L9.20601217,6.71053368 L5.52330483,6.71053368 C5.52330483,6.71053368 3.73851089,6.75285818 3.77621787,8.86203277 C3.77621787,10.9712074 5.63014068,11.0488024 5.63014068,11.0488024 L5.63014068,11.0488024 Z" id="4" opacity="0.504897388" fill="#000000"></path>
                        <path id="16" stroke-opacity="0.600000024" stroke="#000000" d="M14.0863017,14.6183566 L14.0863017,2.73737806"></path>
                        <path d="M18.2318214,4.73930116 L20.5371326,4.73930116 L20.5371326,3.99946013 L18.2318214,3.99946013 L18.2318214,4.73930116 L18.2318214,4.73930116 Z" id="17" opacity="0.5" fill-opacity="0.600000024" fill="#000000"></path>
                        <path d="M18.2318214,5.96874323 L20.5371326,5.96874323 L20.5371326,5.23978194 L18.2318214,5.23978194 L18.2318214,5.96874323 L18.2318214,5.96874323 Z" id="18" opacity="0.5" fill-opacity="0.600000024" fill="#000000"></path>
                        <path d="M18.2318214,7.19818503 L20.5371326,7.19818503 L20.5371326,6.469224 L18.2318214,6.469224 L18.2318214,7.19818503 L18.2318214,7.19818503 Z" id="19" opacity="0.5" fill-opacity="0.600000024" fill="#000000"></path>
                        <path d="M18.2318214,8.4385071 L20.5371326,8.4385071 L20.5371326,7.69866581 L18.2318214,7.69866581 L18.2318214,8.4385071 L18.2318214,8.4385071 Z" id="20" opacity="0.5" fill-opacity="0.600000024" fill="#000000"></path>
                        <path d="M18.2318214,9.6679489 L20.5371326,9.6679489 L20.5371326,8.92810787 L18.2318214,8.92810787 L18.2318214,9.6679489 L18.2318214,9.6679489 Z" id="21" opacity="0.5" fill-opacity="0.600000024" fill="#000000"></path>
                        <path d="M18.2318214,10.908271 L20.5371326,10.908271 L20.5371326,10.1575497 L18.2318214,10.1575497 L18.2318214,10.908271 L18.2318214,10.908271 Z" id="22" opacity="0.5" fill-opacity="0.600000024" fill="#000000"></path>
                        <path d="M18.2318214,12.1377128 L20.5371326,12.1377128 L20.5371326,11.4087517 L18.2318214,11.4087517 L18.2318214,12.1377128 L18.2318214,12.1377128 Z" id="23" opacity="0.5" fill-opacity="0.600000024" fill="#000000"></path>
                        <path d="M18.2318214,13.3671546 L20.5371326,13.3671546 L20.5371326,12.6273135 L18.2318214,12.6273135 L18.2318214,13.3671546 L18.2318214,13.3671546 Z" id="24" opacity="0.5" fill-opacity="0.600000024" fill="#000000"></path>
                    </g>
                </g>
                <g id="datacenter-5" transform="translate(5.000000, 32.000000)" sketch:type="MSShapeGroup">
                    <g id="datacenter-3" transform="translate(0.757576, 14.186667)">
                        <rect id="Rectangle-98" stroke-opacity="0.600000024" stroke="#000000" stroke-width="0.5" opacity="0.600391805" fill="#D8D8D8" x="0" y="0" width="23.4848485" height="5.97333333" rx="1.35000157"></rect>
                        <rect id="Rectangle-99" opacity="0.631646455" fill="#FFFFFF" x="1.13636364" y="1.12" width="4.92424242" height="1.49333333" rx="0.450000525"></rect>
                        <rect id="Rectangle-100" opacity="0.631646455" fill="#FFFFFF" x="6.81818182" y="1.12" width="4.92424242" height="1.49333333" rx="0.450000525"></rect>
                        <rect id="Rectangle-101" opacity="0.631646455" fill="#FFFFFF" x="12.5" y="1.12" width="4.92424242" height="1.49333333" rx="0.450000525"></rect>
                        <rect id="Rectangle-104" opacity="0.631646455" fill="#FFFFFF" x="1.13636364" y="2.98666667" width="4.92424242" height="1.49333333" rx="0.450000525"></rect>
                        <rect id="Rectangle-102" opacity="0.631646455" fill="#FFFFFF" x="6.81818182" y="2.98666667" width="4.92424242" height="1.49333333" rx="0.450000525"></rect>
                        <rect id="Rectangle-103" opacity="0.631646455" fill="#FFFFFF" x="12.5" y="2.98666667" width="4.92424242" height="1.49333333" rx="0.450000525"></rect>
                        <ellipse id="Oval-22" fill="#FFFFFF" cx="19.3181818" cy="1.86666667" rx="0.757575758" ry="0.746666667"></ellipse>
                        <ellipse id="Oval-23" fill="#FFFFFF" cx="21.5909091" cy="1.86666667" rx="0.757575758" ry="0.746666667"></ellipse>
                    </g>
                    <g id="datacenter-4" transform="translate(0.757576, 20.533333)">
                        <rect id="Rectangle-98" stroke-opacity="0.600000024" stroke="#000000" stroke-width="0.5" opacity="0.600391805" fill="#D8D8D8" x="0" y="0" width="23.4848485" height="5.97333333" rx="1.35000157"></rect>
                        <rect id="Rectangle-99" opacity="0.631646455" fill="#FFFFFF" x="1.13636364" y="1.12" width="4.92424242" height="1.49333333" rx="0.450000525"></rect>
                        <rect id="Rectangle-100" opacity="0.631646455" fill="#FFFFFF" x="6.81818182" y="1.12" width="4.92424242" height="1.49333333" rx="0.450000525"></rect>
                        <rect id="Rectangle-101" opacity="0.631646455" fill="#FFFFFF" x="12.5" y="1.12" width="4.92424242" height="1.49333333" rx="0.450000525"></rect>
                        <rect id="Rectangle-104" opacity="0.631646455" fill="#FFFFFF" x="1.13636364" y="2.98666667" width="4.92424242" height="1.49333333" rx="0.450000525"></rect>
                        <rect id="Rectangle-102" opacity="0.631646455" fill="#FFFFFF" x="6.81818182" y="2.98666667" width="4.92424242" height="1.49333333" rx="0.450000525"></rect>
                        <rect id="Rectangle-103" opacity="0.631646455" fill="#FFFFFF" x="12.5" y="2.98666667" width="4.92424242" height="1.49333333" rx="0.450000525"></rect>
                        <ellipse id="Oval-22" fill="#FFFFFF" cx="19.3181818" cy="1.86666667" rx="0.757575758" ry="0.746666667"></ellipse>
                        <ellipse id="Oval-23" fill="#FFFFFF" cx="21.5909091" cy="1.86666667" rx="0.757575758" ry="0.746666667"></ellipse>
                    </g>
                    <g id="datacenter-2" transform="translate(0.757576, 7.840000)">
                        <rect id="Rectangle-98" stroke-opacity="0.600000024" stroke="#000000" stroke-width="0.5" opacity="0.600391805" fill="#D8D8D8" x="0" y="0" width="23.4848485" height="5.97333333" rx="1.35000157"></rect>
                        <rect id="Rectangle-99" opacity="0.631646455" fill="#FFFFFF" x="1.13636364" y="1.12" width="4.92424242" height="1.49333333" rx="0.450000525"></rect>
                        <rect id="Rectangle-100" opacity="0.631646455" fill="#FFFFFF" x="6.81818182" y="1.12" width="4.92424242" height="1.49333333" rx="0.450000525"></rect>
                        <rect id="Rectangle-101" opacity="0.631646455" fill="#FFFFFF" x="12.5" y="1.12" width="4.92424242" height="1.49333333" rx="0.450000525"></rect>
                        <rect id="Rectangle-104" opacity="0.631646455" fill="#FFFFFF" x="1.13636364" y="2.98666667" width="4.92424242" height="1.49333333" rx="0.450000525"></rect>
                        <rect id="Rectangle-102" opacity="0.631646455" fill="#FFFFFF" x="6.81818182" y="2.98666667" width="4.92424242" height="1.49333333" rx="0.450000525"></rect>
                        <rect id="Rectangle-103" opacity="0.631646455" fill="#FFFFFF" x="12.5" y="2.98666667" width="4.92424242" height="1.49333333" rx="0.450000525"></rect>
                        <ellipse id="Oval-22" fill="#FFFFFF" cx="19.3181818" cy="1.86666667" rx="0.757575758" ry="0.746666667"></ellipse>
                        <ellipse id="Oval-23" fill="#FFFFFF" cx="21.5909091" cy="1.86666667" rx="0.757575758" ry="0.746666667"></ellipse>
                    </g>
                    <g id="datacenter" transform="translate(0.757576, 1.493333)">
                        <rect id="Rectangle-98" stroke-opacity="0.600000024" stroke="#000000" stroke-width="0.5" opacity="0.600391805" fill="#D8D8D8" x="0" y="0" width="23.4848485" height="5.97333333" rx="1.35000157"></rect>
                        <rect id="Rectangle-99" opacity="0.631646455" fill="#FFFFFF" x="1.13636364" y="1.12" width="4.92424242" height="1.49333333" rx="0.450000525"></rect>
                        <rect id="Rectangle-100" opacity="0.631646455" fill="#FFFFFF" x="6.81818182" y="1.12" width="4.92424242" height="1.49333333" rx="0.450000525"></rect>
                        <rect id="Rectangle-101" opacity="0.631646455" fill="#FFFFFF" x="12.5" y="1.12" width="4.92424242" height="1.49333333" rx="0.450000525"></rect>
                        <rect id="Rectangle-104" opacity="0.631646455" fill="#FFFFFF" x="1.13636364" y="2.98666667" width="4.92424242" height="1.49333333" rx="0.450000525"></rect>
                        <rect id="Rectangle-102" opacity="0.631646455" fill="#FFFFFF" x="6.81818182" y="2.98666667" width="4.92424242" height="1.49333333" rx="0.450000525"></rect>
                        <rect id="Rectangle-103" opacity="0.631646455" fill="#FFFFFF" x="12.5" y="2.98666667" width="4.92424242" height="1.49333333" rx="0.450000525"></rect>
                        <ellipse id="Oval-22" fill="#FFFFFF" cx="19.3181818" cy="1.86666667" rx="0.757575758" ry="0.746666667"></ellipse>
                        <ellipse id="Oval-23" fill="#FFFFFF" cx="21.5909091" cy="1.86666667" rx="0.757575758" ry="0.746666667"></ellipse>
                    </g>
                    <rect id="Rectangle-118" stroke="#000000" stroke-width="0.5" opacity="0.393131996" x="0" y="0" width="25" height="28" rx="0.900001049"></rect>
                </g>
            </g>
        </g>
    </g>
</svg>