<?xml version="1.0" encoding="UTF-8" standalone="no"?>
<svg width="24px" height="24px" viewBox="0 0 24 24" version="1.1" xmlns="http://www.w3.org/2000/svg" xmlns:xlink="http://www.w3.org/1999/xlink" xmlns:sketch="http://www.bohemiancoding.com/sketch/ns">
    <!-- Generator: Sketch 3.2.2 (9983) - http://www.bohemiancoding.com/sketch -->
    <title>tfre_db_datalink_bridge</title>
    <desc>Created with Sketch.</desc>
    <defs></defs>
    <g id="ADC" stroke="none" stroke-width="1" fill="none" fill-rule="evenodd" sketch:type="MSPage">
        <g id="adc_services" sketch:type="MSArtboardGroup" transform="translate(-178.000000, -87.000000)">
            <g id="tfre_db_datalink_bridge" sketch:type="MSLayerGroup" transform="translate(178.000000, 87.000000)">
                <g id="ether-5-+-ether-6-+-Path-613" transform="translate(3.000000, 10.000000)" sketch:type="MSShapeGroup">
                    <g id="ether-5" transform="translate(4.500000, 9.000000) rotate(90.000000) translate(-4.500000, -9.000000) translate(0.000000, 5.000000)">
                        <g id="ether">
                            <path d="M7.72038292,2.95486482 L7.98958921,2.95486482 L7.99338247,5.78230923 L7.7128018,5.78230923 L7.70521528,6.95327103 L1.85851685,6.95327103 L1.85851685,1.7553429 L7.70521528,1.7553429 L7.72038112,2.95486482 L7.72038292,2.95486482 Z" id="2" fill-opacity="0.25" fill="#000000"></path>
                            <path d="M4.80303293,3.14387063 L3.85067342,3.51039119 L3.85067342,5.46199424 L4.80303293,5.8142348 L4.80303293,7.98003819 L0.822345492,7.98955819 L0.486835431,7.97051819 L0.404705326,7.93243808 L0.303353335,7.84199796 L0.221223272,7.70395774 L0.14258807,7.4897574 L0.0936595472,7.25175706 L0.06395291,7.03755672 L0.0447309829,6.74243627 L0.0429836141,2.4346295 L0.0394888764,2.25850927 L0.0464786831,2.05382893 L0.072690417,1.81582848 L0.0954072475,1.69206837 L0.14433577,1.50166803 L0.217728617,1.32078775 L0.315585704,1.15894749 L0.446644332,1.0351873 L0.556733581,0.968547194 L0.846810022,0.987587227 L3.08878623,0.987587227 L4.80303335,0.968547194 L4.80303335,3.14387063 L4.80303293,3.14387063 Z" id="3" opacity="0.697936101" fill="#000000"></path>
                            <path d="M2.11130276,5.39635107 L3.45225456,5.39635107 L3.45225456,3.49835848 L2.07123931,3.49835848 C2.07123931,3.49835848 1.40194158,3.51687546 1.4160817,4.43963934 C1.4160817,5.36240322 2.11130276,5.39635107 2.11130276,5.39635107 L2.11130276,5.39635107 Z" id="4" opacity="0.504897388" fill="#000000"></path>
                            <path id="16" stroke-opacity="0.600000024" stroke="#000000" d="M5.28236315,6.95803103 L5.28236315,1.7601029"></path>
                            <path id="17" opacity="0.5" fill-opacity="0.600000024" fill="#000000" d="M6.83693303,2.63594426 L7.70142472,2.63594426 L7.70142472,2.31226381 L6.83693303,2.31226381 L6.83693303,2.63594426 L6.83693303,2.63594426 Z"></path>
                            <path id="18" opacity="0.5" fill-opacity="0.600000024" fill="#000000" d="M6.83693303,3.17382516 L7.70142472,3.17382516 L7.70142472,2.8549046 L6.83693303,2.8549046 L6.83693303,3.17382516 L6.83693303,3.17382516 Z"></path>
                            <path id="19" opacity="0.5" fill-opacity="0.600000024" fill="#000000" d="M6.83693303,3.71170595 L7.70142472,3.71170595 L7.70142472,3.3927855 L6.83693303,3.3927855 L6.83693303,3.71170595 L6.83693303,3.71170595 Z"></path>
                            <path id="20" opacity="0.5" fill-opacity="0.600000024" fill="#000000" d="M6.83693303,4.25434685 L7.70142472,4.25434685 L7.70142472,3.93066629 L6.83693303,3.93066629 L6.83693303,4.25434685 L6.83693303,4.25434685 Z"></path>
                            <path id="21" opacity="0.5" fill-opacity="0.600000024" fill="#000000" d="M6.83693303,4.79222765 L7.70142472,4.79222765 L7.70142472,4.46854719 L6.83693303,4.46854719 L6.83693303,4.79222765 L6.83693303,4.79222765 Z"></path>
                            <path id="22" opacity="0.5" fill-opacity="0.600000024" fill="#000000" d="M6.83693303,5.33486855 L7.70142472,5.33486855 L7.70142472,5.00642798 L6.83693303,5.00642798 L6.83693303,5.33486855 L6.83693303,5.33486855 Z"></path>
                            <path id="23" opacity="0.5" fill-opacity="0.600000024" fill="#000000" d="M6.83693303,5.87274934 L7.70142472,5.87274934 L7.70142472,5.55382889 L6.83693303,5.55382889 L6.83693303,5.87274934 L6.83693303,5.87274934 Z"></path>
                            <path id="24" opacity="0.5" fill-opacity="0.600000024" fill="#000000" d="M6.83693303,6.41063013 L7.70142472,6.41063013 L7.70142472,6.08694968 L6.83693303,6.08694968 L6.83693303,6.41063013 L6.83693303,6.41063013 Z"></path>
                        </g>
                    </g>
                    <g id="ether-6" transform="translate(14.000000, 8.500000) rotate(90.000000) translate(-14.000000, -8.500000) translate(10.000000, 5.000000)">
                        <g id="ether">
                            <path d="M7.72038292,1.95486482 L7.98958921,1.95486482 L7.99338247,4.78230923 L7.7128018,4.78230923 L7.70521528,5.95327103 L1.85851685,5.95327103 L1.85851685,0.755342903 L7.70521528,0.755342903 L7.72038112,1.95486482 L7.72038292,1.95486482 Z" id="2" fill-opacity="0.25" fill="#000000"></path>
                            <path d="M4.80303293,2.14387063 L3.85067342,2.51039119 L3.85067342,4.46199424 L4.80303293,4.8142348 L4.80303293,6.98003819 L0.822345492,6.98955819 L0.486835431,6.97051819 L0.404705326,6.93243808 L0.303353335,6.84199796 L0.221223272,6.70395774 L0.14258807,6.4897574 L0.0936595472,6.25175706 L0.06395291,6.03755672 L0.0447309829,5.74243627 L0.0429836141,1.4346295 L0.0394888764,1.25850927 L0.0464786831,1.05382893 L0.072690417,0.815828481 L0.0954072475,0.692068368 L0.14433577,0.501668029 L0.217728617,0.320787747 L0.315585704,0.158947487 L0.446644332,0.0351872952 L0.556733581,-0.0314528065 L0.846810022,-0.0124127726 L3.08878623,-0.0124127726 L4.80303335,-0.0314528065 L4.80303335,2.14387063 L4.80303293,2.14387063 Z" id="3" opacity="0.697936101" fill="#000000"></path>
                            <path d="M2.11130276,4.39635107 L3.45225456,4.39635107 L3.45225456,2.49835848 L2.07123931,2.49835848 C2.07123931,2.49835848 1.40194158,2.51687546 1.4160817,3.43963934 C1.4160817,4.36240322 2.11130276,4.39635107 2.11130276,4.39635107 L2.11130276,4.39635107 Z" id="4" opacity="0.504897388" fill="#000000"></path>
                            <path id="16" stroke-opacity="0.600000024" stroke="#000000" d="M5.28236315,5.95803103 L5.28236315,0.760102903"></path>
                            <path id="17" opacity="0.5" fill-opacity="0.600000024" fill="#000000" d="M6.83693303,1.63594426 L7.70142472,1.63594426 L7.70142472,1.31226381 L6.83693303,1.31226381 L6.83693303,1.63594426 L6.83693303,1.63594426 Z"></path>
                            <path id="18" opacity="0.5" fill-opacity="0.600000024" fill="#000000" d="M6.83693303,2.17382516 L7.70142472,2.17382516 L7.70142472,1.8549046 L6.83693303,1.8549046 L6.83693303,2.17382516 L6.83693303,2.17382516 Z"></path>
                            <path id="19" opacity="0.5" fill-opacity="0.600000024" fill="#000000" d="M6.83693303,2.71170595 L7.70142472,2.71170595 L7.70142472,2.3927855 L6.83693303,2.3927855 L6.83693303,2.71170595 L6.83693303,2.71170595 Z"></path>
                            <path id="20" opacity="0.5" fill-opacity="0.600000024" fill="#000000" d="M6.83693303,3.25434685 L7.70142472,3.25434685 L7.70142472,2.93066629 L6.83693303,2.93066629 L6.83693303,3.25434685 L6.83693303,3.25434685 Z"></path>
                            <path id="21" opacity="0.5" fill-opacity="0.600000024" fill="#000000" d="M6.83693303,3.79222765 L7.70142472,3.79222765 L7.70142472,3.46854719 L6.83693303,3.46854719 L6.83693303,3.79222765 L6.83693303,3.79222765 Z"></path>
                            <path id="22" opacity="0.5" fill-opacity="0.600000024" fill="#000000" d="M6.83693303,4.33486855 L7.70142472,4.33486855 L7.70142472,4.00642798 L6.83693303,4.00642798 L6.83693303,4.33486855 L6.83693303,4.33486855 Z"></path>
                            <path id="23" opacity="0.5" fill-opacity="0.600000024" fill="#000000" d="M6.83693303,4.87274934 L7.70142472,4.87274934 L7.70142472,4.55382889 L6.83693303,4.55382889 L6.83693303,4.87274934 L6.83693303,4.87274934 Z"></path>
                            <path id="24" opacity="0.5" fill-opacity="0.600000024" fill="#000000" d="M6.83693303,5.41063013 L7.70142472,5.41063013 L7.70142472,5.08694968 L6.83693303,5.08694968 L6.83693303,5.41063013 L6.83693303,5.41063013 Z"></path>
                        </g>
                    </g>
                    <path d="M4.08544922,4.50837862 C4.08544922,-0.421963339 14.0759277,-0.474775652 14.0759277,4.50837865" id="Path-613" stroke="#979797"></path>
                </g>
                <path d="M0.771972656,4.70507812 L2.48876953,4.70507812 C2.82861498,4.70507812 3.08203042,4.71923814 3.24902344,4.74755859 C3.41601646,4.77587905 3.56542903,4.83496049 3.69726562,4.92480469 C3.82910222,5.01464889 3.9389644,5.1342766 4.02685547,5.28369141 C4.11474653,5.43310622 4.15869141,5.60058501 4.15869141,5.78613281 C4.15869141,5.98730569 4.10449273,6.17187416 3.99609375,6.33984375 C3.88769477,6.50781334 3.74072358,6.63378864 3.55517578,6.71777344 C3.81689584,6.79394569 4.0180657,6.92382721 4.15869141,7.10742188 C4.29931711,7.29101654 4.36962891,7.5068347 4.36962891,7.75488281 C4.36962891,7.95019629 4.3242192,8.1401358 4.23339844,8.32470703 C4.14257767,8.50927827 4.01855547,8.65673773 3.86132812,8.76708984 C3.70410078,8.87744196 3.51025506,8.94531237 3.27978516,8.97070312 C3.13525318,8.9863282 2.78662386,8.99609373 2.23388672,9 L0.771972656,9 L0.771972656,4.70507812 Z M1.63916016,5.41992188 L1.63916016,6.41308594 L2.20751953,6.41308594 C2.54541185,6.41308594 2.75537068,6.40820317 2.83740234,6.3984375 C2.98584059,6.38085929 3.10253864,6.32959027 3.1875,6.24462891 C3.27246136,6.15966754 3.31494141,6.04785226 3.31494141,5.90917969 C3.31494141,5.77636652 3.27832068,5.66845745 3.20507812,5.58544922 C3.13183557,5.50244099 3.02294994,5.45214853 2.87841797,5.43457031 C2.79248004,5.42480464 2.5454122,5.41992188 2.13720703,5.41992188 L1.63916016,5.41992188 Z M1.63916016,7.12792969 L1.63916016,8.27636719 L2.44189453,8.27636719 C2.75439609,8.27636719 2.9526363,8.26757821 3.03662109,8.25 C3.16552799,8.22656238 3.27050741,8.16943405 3.3515625,8.07861328 C3.43261759,7.98779251 3.47314453,7.8662117 3.47314453,7.71386719 C3.47314453,7.58496029 3.44189484,7.47558639 3.37939453,7.38574219 C3.31689422,7.29589799 3.22656309,7.23046896 3.10839844,7.18945312 C2.99023378,7.14843729 2.73388869,7.12792969 2.33935547,7.12792969 L1.63916016,7.12792969 Z M5.10498047,9 L5.10498047,4.70507812 L6.93017578,4.70507812 C7.38916245,4.70507812 7.72265521,4.74365196 7.93066406,4.82080078 C8.13867292,4.8979496 8.30517516,5.03515526 8.43017578,5.23242188 C8.55517641,5.42968849 8.61767578,5.65527217 8.61767578,5.90917969 C8.61767578,6.23144692 8.52295017,6.49755754 8.33349609,6.70751953 C8.14404202,6.91748152 7.86084173,7.04980441 7.48388672,7.10449219 C7.67138766,7.21386773 7.82617126,7.33398372 7.94824219,7.46484375 C8.07031311,7.59570378 8.23486225,7.82812333 8.44189453,8.16210938 L8.96630859,9 L7.92919922,9 L7.30224609,8.06542969 C7.07958873,7.73144364 6.9272465,7.52099653 6.84521484,7.43408203 C6.76318318,7.34716753 6.67626999,7.28759782 6.58447266,7.25537109 C6.49267532,7.22314437 6.34716896,7.20703125 6.14794922,7.20703125 L5.97216797,7.20703125 L5.97216797,9 L5.10498047,9 Z M5.97216797,6.52148438 L6.61376953,6.52148438 C7.02978724,6.52148438 7.28955026,6.50390643 7.39306641,6.46875 C7.49658255,6.43359357 7.57763643,6.3730473 7.63623047,6.28710938 C7.69482451,6.20117145 7.72412109,6.09375064 7.72412109,5.96484375 C7.72412109,5.82031178 7.68554726,5.70361373 7.60839844,5.61474609 C7.53124961,5.52587846 7.42236398,5.46972668 7.28173828,5.44628906 C7.21142543,5.43652339 7.00049004,5.43164062 6.64892578,5.43164062 L5.97216797,5.43164062 L5.97216797,6.52148438 Z M9.40869141,9 L9.40869141,4.70507812 L10.2758789,4.70507812 L10.2758789,9 L9.40869141,9 Z M11.0991211,4.70507812 L12.684082,4.70507812 C13.0415057,4.70507812 13.3139639,4.7324216 13.5014648,4.78710938 C13.7534192,4.8613285 13.9692374,4.99316312 14.1489258,5.18261719 C14.3286142,5.37207126 14.4653316,5.60400253 14.559082,5.87841797 C14.6528325,6.1528334 14.699707,6.49120893 14.699707,6.89355469 C14.699707,7.24707208 14.6557622,7.55175653 14.5678711,7.80761719 C14.4604487,8.12011875 14.3071299,8.37304591 14.1079102,8.56640625 C13.9575188,8.71289136 13.7543958,8.82714803 13.4985352,8.90917969 C13.3071279,8.96972687 13.0512711,9 12.730957,9 L11.0991211,9 L11.0991211,4.70507812 Z M11.9663086,5.43164062 L11.9663086,8.27636719 L12.6137695,8.27636719 C12.8559582,8.27636719 13.0307612,8.26269545 13.1381836,8.23535156 C13.2788093,8.20019514 13.3955073,8.14062542 13.4882812,8.05664062 C13.5810552,7.97265583 13.656738,7.83447362 13.715332,7.64208984 C13.7739261,7.44970607 13.8032227,7.18750166 13.8032227,6.85546875 C13.8032227,6.52343584 13.7739261,6.26855558 13.715332,6.09082031 C13.656738,5.91308505 13.5747076,5.77441456 13.4692383,5.67480469 C13.363769,5.57519481 13.2299813,5.50781268 13.0678711,5.47265625 C12.9467767,5.44531236 12.7094744,5.43164062 12.355957,5.43164062 L11.9663086,5.43164062 Z M17.4331055,7.42089844 L17.4331055,6.69726562 L19.3022461,6.69726562 L19.3022461,8.40820312 C19.1206046,8.58398525 18.8574236,8.73876886 18.5126953,8.87255859 C18.167967,9.00634833 17.8188494,9.07324219 17.465332,9.07324219 C17.016111,9.07324219 16.6245134,8.97900485 16.2905273,8.79052734 C15.9565413,8.60204984 15.7055672,8.33252128 15.5375977,7.98193359 C15.3696281,7.6313459 15.2856445,7.25000206 15.2856445,6.83789062 C15.2856445,6.39062276 15.3793936,5.9931658 15.5668945,5.64550781 C15.7543955,5.29784982 16.0288068,5.03125093 16.3901367,4.84570312 C16.6655287,4.70312429 17.0082987,4.63183594 17.418457,4.63183594 C17.9516628,4.63183594 18.3681626,4.74365123 18.6679688,4.96728516 C18.9677749,5.19091909 19.1606441,5.49999803 19.246582,5.89453125 L18.3852539,6.05566406 C18.3247067,5.84472551 18.2109383,5.67822327 18.0439453,5.55615234 C17.8769523,5.43408142 17.6684583,5.37304688 17.418457,5.37304688 C17.0395489,5.37304688 16.7382824,5.49316286 16.5146484,5.73339844 C16.2910145,5.97363401 16.1791992,6.33007576 16.1791992,6.80273438 C16.1791992,7.31250255 16.2924793,7.69482294 16.519043,7.94970703 C16.7456066,8.20459112 17.0424786,8.33203125 17.409668,8.33203125 C17.5913095,8.33203125 17.7734366,8.29638708 17.9560547,8.22509766 C18.1386728,8.15380824 18.2954095,8.06738332 18.4262695,7.96582031 L18.4262695,7.42089844 L17.4331055,7.42089844 Z M20.1020508,9 L20.1020508,4.70507812 L23.2866211,4.70507812 L23.2866211,5.43164062 L20.9692383,5.43164062 L20.9692383,6.38378906 L23.1254883,6.38378906 L23.1254883,7.10742188 L20.9692383,7.10742188 L20.9692383,8.27636719 L23.3686523,8.27636719 L23.3686523,9 L20.1020508,9 Z" id="BRIDGE" opacity="0.803171642" fill-opacity="0.600000024" fill="#000000" sketch:type="MSShapeGroup"></path>
            </g>
        </g>
    </g>
</svg>