<?xml version="1.0" encoding="UTF-8" standalone="no"?>
<svg width="24px" height="24px" viewBox="0 0 24 24" version="1.1" xmlns="http://www.w3.org/2000/svg" xmlns:xlink="http://www.w3.org/1999/xlink" xmlns:sketch="http://www.bohemiancoding.com/sketch/ns">
    <!-- Generator: Sketch 3.2.2 (9983) - http://www.bohemiancoding.com/sketch -->
    <title>tfre_db_datalink_aggr</title>
    <desc>Created with Sketch.</desc>
    <defs></defs>
    <g id="ADC" stroke="none" stroke-width="1" fill="none" fill-rule="evenodd" sketch:type="MSPage">
        <g id="adc_services" sketch:type="MSArtboardGroup" transform="translate(-153.000000, -87.000000)">
            <g id="tfre_db_datalink_aggr" sketch:type="MSLayerGroup" transform="translate(153.000000, 87.000000)">
                <g id="ether-2" transform="translate(3.000000, 10.000000)" sketch:type="MSShapeGroup">
                    <g id="ether">
                        <path d="M9.65047865,2.23413123 L9.98698652,2.23413123 L9.99172809,5.46549626 L9.64100225,5.46549626 L9.6315191,6.80373832 L2.32314607,6.80373832 L2.32314607,0.863249032 L9.6315191,0.863249032 L9.6504764,2.23413123 L9.65047865,2.23413123 Z" id="2" fill-opacity="0.25" fill="#000000"></path>
                        <path d="M6.00379117,2.45013786 L4.81334178,2.8690185 L4.81334178,5.09942199 L6.00379117,5.50198263 L6.00379117,7.9771865 L1.02793186,7.9880665 L0.608544288,7.9663065 L0.505881657,7.92278637 L0.379191669,7.81942625 L0.27652909,7.66166599 L0.178235088,7.4168656 L0.117074434,7.14486521 L0.0799411375,6.90006483 L0.0559137286,6.56278431 L0.0537295176,1.63957657 L0.0493610955,1.43829631 L0.0580983539,1.20437592 L0.0908630213,0.932375406 L0.119259059,0.790935277 L0.180419713,0.57333489 L0.272160771,0.366614568 L0.39448213,0.181654271 L0.558305415,0.0402140516 L0.695916976,-0.0359460645 L1.05851253,-0.0141860258 L3.86098278,-0.0141860258 L6.00379168,-0.0359460645 L6.00379168,2.45013786 L6.00379117,2.45013786 Z" id="3" opacity="0.697936101" fill="#000000"></path>
                        <path d="M2.63912844,5.02440122 L4.31531821,5.02440122 L4.31531821,2.85526684 L2.58904914,2.85526684 C2.58904914,2.85526684 1.75242698,2.87642909 1.77010213,3.93101638 C1.77010213,4.98560368 2.63912844,5.02440122 2.63912844,5.02440122 L2.63912844,5.02440122 Z" id="4" opacity="0.504897388" fill="#000000"></path>
                        <path id="16" stroke-opacity="0.600000024" stroke="#000000" d="M6.60295393,6.80917832 L6.60295393,0.868689032"></path>
                        <path id="17" opacity="0.5" fill-opacity="0.600000024" fill="#000000" d="M8.54616629,1.86965058 L9.6267809,1.86965058 L9.6267809,1.49973006 L8.54616629,1.49973006 L8.54616629,1.86965058 L8.54616629,1.86965058 Z"></path>
                        <path id="18" opacity="0.5" fill-opacity="0.600000024" fill="#000000" d="M8.54616629,2.48437161 L9.6267809,2.48437161 L9.6267809,2.11989097 L8.54616629,2.11989097 L8.54616629,2.48437161 L8.54616629,2.48437161 Z"></path>
                        <path id="19" opacity="0.5" fill-opacity="0.600000024" fill="#000000" d="M8.54616629,3.09909252 L9.6267809,3.09909252 L9.6267809,2.734612 L8.54616629,2.734612 L8.54616629,3.09909252 L8.54616629,3.09909252 Z"></path>
                        <path id="20" opacity="0.5" fill-opacity="0.600000024" fill="#000000" d="M8.54616629,3.71925355 L9.6267809,3.71925355 L9.6267809,3.3493329 L8.54616629,3.3493329 L8.54616629,3.71925355 L8.54616629,3.71925355 Z"></path>
                        <path id="21" opacity="0.5" fill-opacity="0.600000024" fill="#000000" d="M8.54616629,4.33397445 L9.6267809,4.33397445 L9.6267809,3.96405394 L8.54616629,3.96405394 L8.54616629,4.33397445 L8.54616629,4.33397445 Z"></path>
                        <path id="22" opacity="0.5" fill-opacity="0.600000024" fill="#000000" d="M8.54616629,4.95413548 L9.6267809,4.95413548 L9.6267809,4.57877484 L8.54616629,4.57877484 L8.54616629,4.95413548 L8.54616629,4.95413548 Z"></path>
                        <path id="23" opacity="0.5" fill-opacity="0.600000024" fill="#000000" d="M8.54616629,5.56885639 L9.6267809,5.56885639 L9.6267809,5.20437587 L8.54616629,5.20437587 L8.54616629,5.56885639 L8.54616629,5.56885639 Z"></path>
                        <path id="24" opacity="0.5" fill-opacity="0.600000024" fill="#000000" d="M8.54616629,6.18357729 L9.6267809,6.18357729 L9.6267809,5.81365677 L8.54616629,5.81365677 L8.54616629,6.18357729 L8.54616629,6.18357729 Z"></path>
                    </g>
                </g>
                <g id="ether-4" transform="translate(10.000000, 14.000000)" sketch:type="MSShapeGroup">
                    <g id="ether">
                        <path d="M9.65047865,2.23413123 L9.98698652,2.23413123 L9.99172809,5.46549626 L9.64100225,5.46549626 L9.6315191,6.80373832 L2.32314607,6.80373832 L2.32314607,0.863249032 L9.6315191,0.863249032 L9.6504764,2.23413123 L9.65047865,2.23413123 Z" id="2" fill-opacity="0.25" fill="#000000"></path>
                        <path d="M6.00379117,2.45013786 L4.81334178,2.8690185 L4.81334178,5.09942199 L6.00379117,5.50198263 L6.00379117,7.9771865 L1.02793186,7.9880665 L0.608544288,7.9663065 L0.505881657,7.92278637 L0.379191669,7.81942625 L0.27652909,7.66166599 L0.178235088,7.4168656 L0.117074434,7.14486521 L0.0799411375,6.90006483 L0.0559137286,6.56278431 L0.0537295176,1.63957657 L0.0493610955,1.43829631 L0.0580983539,1.20437592 L0.0908630213,0.932375406 L0.119259059,0.790935277 L0.180419713,0.57333489 L0.272160771,0.366614568 L0.39448213,0.181654271 L0.558305415,0.0402140516 L0.695916976,-0.0359460645 L1.05851253,-0.0141860258 L3.86098278,-0.0141860258 L6.00379168,-0.0359460645 L6.00379168,2.45013786 L6.00379117,2.45013786 Z" id="3" opacity="0.697936101" fill="#000000"></path>
                        <path d="M2.63912844,5.02440122 L4.31531821,5.02440122 L4.31531821,2.85526684 L2.58904914,2.85526684 C2.58904914,2.85526684 1.75242698,2.87642909 1.77010213,3.93101638 C1.77010213,4.98560368 2.63912844,5.02440122 2.63912844,5.02440122 L2.63912844,5.02440122 Z" id="4" opacity="0.504897388" fill="#000000"></path>
                        <path id="16" stroke-opacity="0.600000024" stroke="#000000" d="M6.60295393,6.80917832 L6.60295393,0.868689032"></path>
                        <path id="17" opacity="0.5" fill-opacity="0.600000024" fill="#000000" d="M8.54616629,1.86965058 L9.6267809,1.86965058 L9.6267809,1.49973006 L8.54616629,1.49973006 L8.54616629,1.86965058 L8.54616629,1.86965058 Z"></path>
                        <path id="18" opacity="0.5" fill-opacity="0.600000024" fill="#000000" d="M8.54616629,2.48437161 L9.6267809,2.48437161 L9.6267809,2.11989097 L8.54616629,2.11989097 L8.54616629,2.48437161 L8.54616629,2.48437161 Z"></path>
                        <path id="19" opacity="0.5" fill-opacity="0.600000024" fill="#000000" d="M8.54616629,3.09909252 L9.6267809,3.09909252 L9.6267809,2.734612 L8.54616629,2.734612 L8.54616629,3.09909252 L8.54616629,3.09909252 Z"></path>
                        <path id="20" opacity="0.5" fill-opacity="0.600000024" fill="#000000" d="M8.54616629,3.71925355 L9.6267809,3.71925355 L9.6267809,3.3493329 L8.54616629,3.3493329 L8.54616629,3.71925355 L8.54616629,3.71925355 Z"></path>
                        <path id="21" opacity="0.5" fill-opacity="0.600000024" fill="#000000" d="M8.54616629,4.33397445 L9.6267809,4.33397445 L9.6267809,3.96405394 L8.54616629,3.96405394 L8.54616629,4.33397445 L8.54616629,4.33397445 Z"></path>
                        <path id="22" opacity="0.5" fill-opacity="0.600000024" fill="#000000" d="M8.54616629,4.95413548 L9.6267809,4.95413548 L9.6267809,4.57877484 L8.54616629,4.57877484 L8.54616629,4.95413548 L8.54616629,4.95413548 Z"></path>
                        <path id="23" opacity="0.5" fill-opacity="0.600000024" fill="#000000" d="M8.54616629,5.56885639 L9.6267809,5.56885639 L9.6267809,5.20437587 L8.54616629,5.20437587 L8.54616629,5.56885639 L8.54616629,5.56885639 Z"></path>
                        <path id="24" opacity="0.5" fill-opacity="0.600000024" fill="#000000" d="M8.54616629,6.18357729 L9.6267809,6.18357729 L9.6267809,5.81365677 L8.54616629,5.81365677 L8.54616629,6.18357729 L8.54616629,6.18357729 Z"></path>
                    </g>
                </g>
                <path d="M6.80957031,8 L5.86621094,8 L5.49121094,7.02441406 L3.77441406,7.02441406 L3.41992188,8 L2.5,8 L4.17285156,3.70507812 L5.08984375,3.70507812 L6.80957031,8 Z M5.21289062,6.30078125 L4.62109375,4.70703125 L4.04101562,6.30078125 L5.21289062,6.30078125 Z M9.26757812,6.42089844 L9.26757812,5.69726562 L11.1367188,5.69726562 L11.1367188,7.40820312 C10.9550772,7.58398525 10.6918963,7.73876886 10.347168,7.87255859 C10.0024397,8.00634833 9.65332208,8.07324219 9.29980469,8.07324219 C8.85058369,8.07324219 8.45898604,7.97900485 8.125,7.79052734 C7.79101396,7.60204984 7.5400399,7.33252128 7.37207031,6.98193359 C7.20410072,6.6313459 7.12011719,6.25000206 7.12011719,5.83789062 C7.12011719,5.39062276 7.21386625,4.9931658 7.40136719,4.64550781 C7.58886813,4.29784982 7.86327944,4.03125093 8.22460938,3.84570312 C8.50000138,3.70312429 8.84277139,3.63183594 9.25292969,3.63183594 C9.78613548,3.63183594 10.2026352,3.74365123 10.5024414,3.96728516 C10.8022476,4.19091909 10.9951168,4.49999803 11.0810547,4.89453125 L10.2197266,5.05566406 C10.1591794,4.84472551 10.045411,4.67822327 9.87841797,4.55615234 C9.71142495,4.43408142 9.50293094,4.37304688 9.25292969,4.37304688 C8.87402154,4.37304688 8.57275502,4.49316286 8.34912109,4.73339844 C8.12548716,4.97363401 8.01367188,5.33007576 8.01367188,5.80273438 C8.01367188,6.31250255 8.12695199,6.69482294 8.35351562,6.94970703 C8.58007926,7.20459112 8.87695129,7.33203125 9.24414062,7.33203125 C9.42578216,7.33203125 9.60790924,7.29638708 9.79052734,7.22509766 C9.97314544,7.15380824 10.1298822,7.06738332 10.2607422,6.96582031 L10.2607422,6.42089844 L9.26757812,6.42089844 Z M13.9345703,6.42089844 L13.9345703,5.69726562 L15.8037109,5.69726562 L15.8037109,7.40820312 C15.6220694,7.58398525 15.3588884,7.73876886 15.0141602,7.87255859 C14.6694319,8.00634833 14.3203143,8.07324219 13.9667969,8.07324219 C13.5175759,8.07324219 13.1259782,7.97900485 12.7919922,7.79052734 C12.4580061,7.60204984 12.2070321,7.33252128 12.0390625,6.98193359 C11.8710929,6.6313459 11.7871094,6.25000206 11.7871094,5.83789062 C11.7871094,5.39062276 11.8808584,4.9931658 12.0683594,4.64550781 C12.2558603,4.29784982 12.5302716,4.03125093 12.8916016,3.84570312 C13.1669936,3.70312429 13.5097636,3.63183594 13.9199219,3.63183594 C14.4531277,3.63183594 14.8696274,3.74365123 15.1694336,3.96728516 C15.4692398,4.19091909 15.6621089,4.49999803 15.7480469,4.89453125 L14.8867188,5.05566406 C14.8261716,4.84472551 14.7124032,4.67822327 14.5454102,4.55615234 C14.3784171,4.43408142 14.1699231,4.37304688 13.9199219,4.37304688 C13.5410137,4.37304688 13.2397472,4.49316286 13.0161133,4.73339844 C12.7924794,4.97363401 12.6806641,5.33007576 12.6806641,5.80273438 C12.6806641,6.31250255 12.7939442,6.69482294 13.0205078,6.94970703 C13.2470714,7.20459112 13.5439435,7.33203125 13.9111328,7.33203125 C14.0927743,7.33203125 14.2749014,7.29638708 14.4575195,7.22509766 C14.6401376,7.15380824 14.7968743,7.06738332 14.9277344,6.96582031 L14.9277344,6.42089844 L13.9345703,6.42089844 Z M16.6064453,8 L16.6064453,3.70507812 L18.4316406,3.70507812 C18.8906273,3.70507812 19.2241201,3.74365196 19.4321289,3.82080078 C19.6401378,3.8979496 19.80664,4.03515526 19.9316406,4.23242188 C20.0566412,4.42968849 20.1191406,4.65527217 20.1191406,4.90917969 C20.1191406,5.23144692 20.024415,5.49755754 19.8349609,5.70751953 C19.6455069,5.91748152 19.3623066,6.04980441 18.9853516,6.10449219 C19.1728525,6.21386773 19.3276361,6.33398372 19.449707,6.46484375 C19.571778,6.59570378 19.7363271,6.82812333 19.9433594,7.16210938 L20.4677734,8 L19.4306641,8 L18.8037109,7.06542969 C18.5810536,6.73144364 18.4287113,6.52099653 18.3466797,6.43408203 C18.264648,6.34716753 18.1777348,6.28759782 18.0859375,6.25537109 C17.9941402,6.22314437 17.8486338,6.20703125 17.6494141,6.20703125 L17.4736328,6.20703125 L17.4736328,8 L16.6064453,8 Z M17.4736328,5.52148438 L18.1152344,5.52148438 C18.5312521,5.52148438 18.7910151,5.50390643 18.8945312,5.46875 C18.9980474,5.43359357 19.0791013,5.3730473 19.1376953,5.28710938 C19.1962894,5.20117145 19.2255859,5.09375064 19.2255859,4.96484375 C19.2255859,4.82031178 19.1870121,4.70361373 19.1098633,4.61474609 C19.0327145,4.52587846 18.9238288,4.46972668 18.7832031,4.44628906 C18.7128903,4.43652339 18.5019549,4.43164062 18.1503906,4.43164062 L17.4736328,4.43164062 L17.4736328,5.52148438 Z" id="AGGR" opacity="0.803171642" fill-opacity="0.600000024" fill="#000000" sketch:type="MSShapeGroup"></path>
            </g>
        </g>
    </g>
</svg>