<?xml version="1.0" encoding="UTF-8" standalone="no"?>
<svg width="24px" height="24px" viewBox="0 0 24 24" version="1.1" xmlns="http://www.w3.org/2000/svg" xmlns:xlink="http://www.w3.org/1999/xlink" xmlns:sketch="http://www.bohemiancoding.com/sketch/ns">
    <!-- Generator: Sketch 3.2.2 (9983) - http://www.bohemiancoding.com/sketch -->
    <title>tfre_db_datalink_simnet</title>
    <desc>Created with Sketch.</desc>
    <defs></defs>
    <g id="ADC" stroke="none" stroke-width="1" fill="none" fill-rule="evenodd" sketch:type="MSPage">
        <g id="adc_services" sketch:type="MSArtboardGroup" transform="translate(-253.000000, -87.000000)">
            <g id="tfre_db_datalink_simnet" sketch:type="MSLayerGroup" transform="translate(253.000000, 87.000000)">
                <g id="ether-3" transform="translate(4.000000, 11.000000)" sketch:type="MSShapeGroup">
                    <g id="ether">
                        <path d="M13.5106701,3.79266403 L13.9817811,3.79266403 L13.9884193,7.83187032 L13.4974031,7.83187032 L13.4841267,9.5046729 L3.25240449,9.5046729 L3.25240449,2.07906129 L13.4841267,2.07906129 L13.510667,3.79266403 L13.5106701,3.79266403 Z" id="2" fill="#D4B6DB"></path>
                        <path d="M8.40530763,4.06267232 L6.73867849,4.58627313 L6.73867849,7.37427748 L8.40530763,7.87747829 L8.40530763,10.9714831 L1.43910461,10.9850831 L0.851962004,10.9578831 L0.70823432,10.903483 L0.530868337,10.7742828 L0.387140726,10.5770825 L0.249529123,10.271082 L0.163904208,9.93108152 L0.111917593,9.62508103 L0.0782792201,9.20348039 L0.0752213246,3.04947071 L0.0691055337,2.79787039 L0.0813376955,2.5054699 L0.12720823,2.16546926 L0.166962683,1.9886691 L0.252587598,1.71666861 L0.38102508,1.45826821 L0.552274982,1.22706784 L0.781627581,1.05026756 L0.974283767,0.955067419 L1.48191754,0.982267468 L5.4053759,0.982267468 L8.40530836,0.955067419 L8.40530836,4.06267232 L8.40530763,4.06267232 Z" id="3" opacity="0.697936101" fill="#8C0D93"></path>
                        <path d="M3.69477982,7.28050153 L6.04144549,7.28050153 L6.04144549,4.56908355 L3.6246688,4.56908355 C3.6246688,4.56908355 2.45339777,4.59553636 2.47814298,5.91377048 C2.47814298,7.23200459 3.69477982,7.28050153 3.69477982,7.28050153 L3.69477982,7.28050153 Z" id="4" opacity="0.504897388" fill="#6100B6"></path>
                        <path id="16" stroke-opacity="0.600000024" stroke="#000000" d="M9.24413551,9.5114729 L9.24413551,2.08586129"></path>
                        <path id="17" opacity="0.5" fill-opacity="0.600000024" fill="#000000" d="M11.9646328,3.33706323 L13.4774933,3.33706323 L13.4774933,2.87466258 L11.9646328,2.87466258 L11.9646328,3.33706323 L11.9646328,3.33706323 Z"></path>
                        <path id="18" opacity="0.5" fill-opacity="0.600000024" fill="#000000" d="M11.9646328,4.10546452 L13.4774933,4.10546452 L13.4774933,3.64986371 L11.9646328,3.64986371 L11.9646328,4.10546452 L11.9646328,4.10546452 Z"></path>
                        <path id="19" opacity="0.5" fill-opacity="0.600000024" fill="#000000" d="M11.9646328,8.87386565 L13.4774933,8.87386565 L13.4774933,8.418265 L11.9646328,8.418265 L11.9646328,8.87386565 L11.9646328,8.87386565 Z"></path>
                        <path id="20" opacity="0.5" fill-opacity="0.600000024" fill="#000000" d="M11.9646328,5.64906694 L13.4774933,5.64906694 L13.4774933,5.18666613 L11.9646328,5.18666613 L11.9646328,5.64906694 L11.9646328,5.64906694 Z"></path>
                        <path id="21" opacity="0.5" fill-opacity="0.600000024" fill="#000000" d="M11.9646328,6.41746806 L13.4774933,6.41746806 L13.4774933,5.95506742 L11.9646328,5.95506742 L11.9646328,6.41746806 L11.9646328,6.41746806 Z"></path>
                        <path id="22" opacity="0.5" fill-opacity="0.600000024" fill="#000000" d="M11.9646328,7.19266935 L13.4774933,7.19266935 L13.4774933,6.72346855 L11.9646328,6.72346855 L11.9646328,7.19266935 L11.9646328,7.19266935 Z"></path>
                        <path id="23" opacity="0.5" fill-opacity="0.600000024" fill="#000000" d="M11.9646328,7.96107048 L13.4774933,7.96107048 L13.4774933,7.50546984 L11.9646328,7.50546984 L11.9646328,7.96107048 L11.9646328,7.96107048 Z"></path>
                        <path id="24" stroke="#000000" stroke-width="0.04218192" fill-opacity="0.600000024" fill="#000000" d="M11.9646328,8.72947161 L13.4774933,8.72947161 L13.4774933,8.26707097 L11.9646328,8.26707097 L11.9646328,8.72947161 L11.9646328,8.72947161 Z"></path>
                    </g>
                </g>
                <path d="M0.883300781,8.60253906 L1.72705078,8.52050781 C1.77783229,8.80371235 1.8808586,9.01171809 2.03613281,9.14453125 C2.19140703,9.27734441 2.40087759,9.34375 2.66455078,9.34375 C2.94384905,9.34375 3.15429617,9.28466856 3.29589844,9.16650391 C3.43750071,9.04833925 3.50830078,8.91015704 3.50830078,8.75195312 C3.50830078,8.65039012 3.47851592,8.5639652 3.41894531,8.49267578 C3.3593747,8.42138636 3.25537184,8.35937526 3.10693359,8.30664062 C3.00537059,8.2714842 2.77392759,8.20898482 2.41259766,8.11914062 C1.94775158,8.00390567 1.62158297,7.86230553 1.43408203,7.69433594 C1.17040884,7.45800663 1.03857422,7.16992357 1.03857422,6.83007812 C1.03857422,6.61132703 1.10058532,6.40673923 1.22460938,6.21630859 C1.34863343,6.02587795 1.52734258,5.88085987 1.76074219,5.78125 C1.99414179,5.68164013 2.27587726,5.63183594 2.60595703,5.63183594 C3.14502223,5.63183594 3.55077989,5.74999882 3.82324219,5.98632812 C4.09570449,6.22265743 4.23876946,6.53808396 4.25244141,6.93261719 L3.38525391,6.97070312 C3.34814435,6.7499989 3.2685553,6.59130908 3.14648438,6.49462891 C3.02441345,6.39794874 2.84130981,6.34960938 2.59716797,6.34960938 C2.34521358,6.34960938 2.14794993,6.40136667 2.00537109,6.50488281 C1.91357376,6.57128939 1.86767578,6.66015569 1.86767578,6.77148438 C1.86767578,6.87304738 1.9106441,6.95996058 1.99658203,7.03222656 C2.10595758,7.1240239 2.37157992,7.21972606 2.79345703,7.31933594 C3.21533414,7.41894581 3.52734274,7.52197212 3.72949219,7.62841797 C3.93164164,7.73486381 4.08984318,7.88037017 4.20410156,8.06494141 C4.31835995,8.24951264 4.37548828,8.47753771 4.37548828,8.74902344 C4.37548828,8.99511842 4.30712959,9.22558486 4.17041016,9.44042969 C4.03369072,9.65527451 3.84033328,9.81494088 3.59033203,9.91943359 C3.34033078,10.0239263 3.02881046,10.0761719 2.65576172,10.0761719 C2.11279025,10.0761719 1.69580224,9.95068485 1.40478516,9.69970703 C1.11376808,9.44872921 0.939941689,9.08301021 0.883300781,8.60253906 L0.883300781,8.60253906 Z M5.07861328,10 L5.07861328,5.70507812 L5.94580078,5.70507812 L5.94580078,10 L5.07861328,10 Z M6.76025391,10 L6.76025391,5.70507812 L8.05810547,5.70507812 L8.83740234,8.63476562 L9.60791016,5.70507812 L10.9086914,5.70507812 L10.9086914,10 L10.1030273,10 L10.1030273,6.61914062 L9.25048828,10 L8.41552734,10 L7.56591797,6.61914062 L7.56591797,10 L6.76025391,10 Z M11.7788086,10 L11.7788086,5.70507812 L12.6225586,5.70507812 L14.3803711,8.57324219 L14.3803711,5.70507812 L15.1860352,5.70507812 L15.1860352,10 L14.315918,10 L12.5844727,7.19921875 L12.5844727,10 L11.7788086,10 Z M16.1030273,10 L16.1030273,5.70507812 L19.2875977,5.70507812 L19.2875977,6.43164062 L16.9702148,6.43164062 L16.9702148,7.38378906 L19.1264648,7.38378906 L19.1264648,8.10742188 L16.9702148,8.10742188 L16.9702148,9.27636719 L19.3696289,9.27636719 L19.3696289,10 L16.1030273,10 Z M21.0717773,10 L21.0717773,6.43164062 L19.7973633,6.43164062 L19.7973633,5.70507812 L23.2104492,5.70507812 L23.2104492,6.43164062 L21.9389648,6.43164062 L21.9389648,10 L21.0717773,10 Z" id="SIMNET" opacity="0.803171642" fill-opacity="0.600000024" fill="#000000" sketch:type="MSShapeGroup"></path>
            </g>
        </g>
    </g>
</svg>