<?xml version="1.0" encoding="UTF-8" standalone="no"?>
<svg width="24px" height="24px" viewBox="0 0 24 24" version="1.1" xmlns="http://www.w3.org/2000/svg" xmlns:xlink="http://www.w3.org/1999/xlink" xmlns:sketch="http://www.bohemiancoding.com/sketch/ns">
    <!-- Generator: Sketch 3.2.2 (9983) - http://www.bohemiancoding.com/sketch -->
    <title>tfre_db_datalink_iptun</title>
    <desc>Created with Sketch.</desc>
    <defs></defs>
    <g id="ADC" stroke="none" stroke-width="1" fill="none" fill-rule="evenodd" sketch:type="MSPage">
        <g id="adc_services" sketch:type="MSArtboardGroup" transform="translate(-228.000000, -87.000000)" fill="#000000">
            <g id="tfre_db_datalink_iptun" sketch:type="MSLayerGroup" transform="translate(228.000000, 87.000000)">
                <g id="Rectangle-212-+-Rectangle-213" transform="translate(0.000000, 12.000000)" sketch:type="MSShapeGroup">
                    <path d="M5.05543256,1.33333333 L4.1177251,1.33333333 C3.0104055,1.33333333 2.11764706,2.22926094 2.11764706,3.33444365 L2.11764706,4.66555635 C2.11764706,5.76193937 3.0131125,6.66666667 4.1177251,6.66666667 L5.05303675,6.66666667 C5.32536969,7.4468176 6.06465757,8 6.93394775,8 L17.0660523,8 C17.9244045,8 18.6685353,7.44338527 18.9445674,6.66666667 L20.5881573,6.66666667 C21.6954769,6.66666667 22.5882353,5.77073906 22.5882353,4.66555635 L22.5882353,3.33444365 C22.5882353,2.23806063 21.6927699,1.33333333 20.5881573,1.33333333 L18.9469632,1.33333333 C18.6746303,0.553182395 17.9353424,0 17.0660523,0 L6.93394775,0 C6.07559555,0 5.33146472,0.55661473 5.05543256,1.33333333 Z" id="Rectangle-212" fill-opacity="0.434358016"></path>
                    <rect id="Rectangle-213" fill-opacity="0.598335598" x="0" y="2.66666667" width="24" height="2.66666667"></rect>
                </g>
                <path d="M3.41015625,10 L3.41015625,5.70507812 L4.27734375,5.70507812 L4.27734375,10 L3.41015625,10 Z M5.10351562,10 L5.10351562,5.70507812 L6.49511719,5.70507812 C7.02246357,5.70507812 7.36621014,5.72656229 7.52636719,5.76953125 C7.77246217,5.8339847 7.97851479,5.97412001 8.14453125,6.18994141 C8.31054771,6.4057628 8.39355469,6.6845686 8.39355469,7.02636719 C8.39355469,7.29004038 8.3457036,7.51171785 8.25,7.69140625 C8.1542964,7.87109465 8.03271558,8.01220652 7.88525391,8.11474609 C7.73779223,8.21728567 7.58789139,8.28515608 7.43554688,8.31835938 C7.22851459,8.35937521 6.9287129,8.37988281 6.53613281,8.37988281 L5.97070312,8.37988281 L5.97070312,10 L5.10351562,10 Z M5.97070312,6.43164062 L5.97070312,7.65039062 L6.4453125,7.65039062 C6.78711108,7.65039062 7.01562442,7.62792991 7.13085938,7.58300781 C7.24609433,7.53808571 7.33642545,7.46777392 7.40185547,7.37207031 C7.46728548,7.27636671 7.5,7.1650397 7.5,7.03808594 C7.5,6.88183516 7.45410202,6.7529302 7.36230469,6.65136719 C7.27050735,6.54980418 7.15429758,6.48632825 7.01367188,6.4609375 C6.91015573,6.44140615 6.70215,6.43164062 6.38964844,6.43164062 L5.97070312,6.43164062 Z M10.0722656,10 L10.0722656,6.43164062 L8.79785156,6.43164062 L8.79785156,5.70507812 L12.2109375,5.70507812 L12.2109375,6.43164062 L10.9394531,6.43164062 L10.9394531,10 L10.0722656,10 Z M12.7646484,5.70507812 L13.6318359,5.70507812 L13.6318359,8.03125 C13.6318359,8.40039247 13.642578,8.63964789 13.6640625,8.74902344 C13.7011721,8.92480557 13.7895501,9.06591744 13.9291992,9.17236328 C14.0688484,9.27880913 14.2597644,9.33203125 14.5019531,9.33203125 C14.7480481,9.33203125 14.9335931,9.28173878 15.0585938,9.18115234 C15.1835944,9.0805659 15.2587889,8.95703198 15.2841797,8.81054688 C15.3095704,8.66406177 15.3222656,8.42090014 15.3222656,8.08105469 L15.3222656,5.70507812 L16.1894531,5.70507812 L16.1894531,7.9609375 C16.1894531,8.47656508 16.1660159,8.84081925 16.1191406,9.05371094 C16.0722654,9.26660263 15.9858405,9.44628833 15.8598633,9.59277344 C15.7338861,9.73925854 15.5654307,9.8559566 15.3544922,9.94287109 C15.1435536,10.0297856 14.8681658,10.0732422 14.5283203,10.0732422 C14.118162,10.0732422 13.80713,10.0258794 13.5952148,9.93115234 C13.3832997,9.83642531 13.2158209,9.71337966 13.0927734,9.56201172 C12.9697259,9.41064377 12.8886721,9.25195396 12.8496094,9.0859375 C12.7929685,8.83984252 12.7646484,8.4765649 12.7646484,7.99609375 L12.7646484,5.70507812 Z M17.1123047,10 L17.1123047,5.70507812 L17.9560547,5.70507812 L19.7138672,8.57324219 L19.7138672,5.70507812 L20.5195312,5.70507812 L20.5195312,10 L19.6494141,10 L17.9179688,7.19921875 L17.9179688,10 L17.1123047,10 Z" id="IPTUN" opacity="0.803171642" fill-opacity="0.600000024" sketch:type="MSShapeGroup"></path>
            </g>
        </g>
    </g>
</svg>