<?xml version="1.0" encoding="UTF-8" standalone="no"?>
<svg width="24px" height="24px" viewBox="0 0 24 24" version="1.1" xmlns="http://www.w3.org/2000/svg" xmlns:xlink="http://www.w3.org/1999/xlink" xmlns:sketch="http://www.bohemiancoding.com/sketch/ns">
    <!-- Generator: Sketch 3.2.2 (9983) - http://www.bohemiancoding.com/sketch -->
    <title>tfre_db_zfs_dataset_parent</title>
    <desc>Created with Sketch.</desc>
    <defs></defs>
    <g id="ADC" stroke="none" stroke-width="1" fill="none" fill-rule="evenodd" sketch:type="MSPage">
        <g id="adc_services" sketch:type="MSArtboardGroup" transform="translate(-179.000000, -111.000000)">
            <g id="tfre_db_zfs_dataset_parent" sketch:type="MSLayerGroup" transform="translate(179.000000, 111.000000)">
                <g id="data-7" transform="translate(3.000000, 15.000000)" stroke-opacity="0.59935462" stroke="#000000" sketch:type="MSShapeGroup">
                    <g id="data">
                        <path d="M0.161908055,0.905159555 L0.161908055,6.46934373 C0.159947955,6.47377747 0.159081422,6.47809459 0.159081422,6.48255509 C0.159081422,6.4870156 0.159947955,6.49243367 0.161908055,6.4968674 L0.161908055,6.50787686 L0.167561322,6.50787686 C0.388736095,6.78210311 4.33804826,7 9.17321459,7 C14.0068559,7 17.955411,6.78198122 18.1788679,6.50787686 L18.1873478,6.50787686 L18.1873478,6.4968674 C18.1893079,6.49243367 18.1901744,6.4870156 18.1901744,6.48255509 C18.1901744,6.47809459 18.1893079,6.47377747 18.1873478,6.46934373 L18.1873478,0.905159555 C18.1866657,0.905537013 18.1852529,0.905883467 18.1845211,0.906260502 C18.0210413,1.18352114 14.0465011,1.40498932 9.17321459,1.40498932 C4.29992806,1.40498932 0.328213583,1.18352114 0.164734688,0.906260502 C0.16400293,0.905883467 0.162589161,0.905537013 0.161908055,0.905159555 L0.161908055,0.905159555 Z" id="path5588"></path>
                        <path d="M18.1908842,0.534247951 C18.1908842,0.828378229 14.154169,1.06681793 9.1746286,1.06681793 C4.19508816,1.06681793 0.158373055,0.828378229 0.158373055,0.534247951 C0.158373007,0.343979021 1.8768616,0.168163279 4.66650079,0.0730288131 C7.45613998,-0.0221056525 10.8931172,-0.0221056525 13.6827564,0.0730288131 C16.4723956,0.168163279 18.1908842,0.343979021 18.1908842,0.534247951 L18.1908842,0.534247951 Z" id="path5584"></path>
                    </g>
                </g>
                <path d="M6.3984375,7 L6.3984375,6.21777344 L8.65429688,3.43164062 L6.65332031,3.43164062 L6.65332031,2.70507812 L9.796875,2.70507812 L9.796875,3.37890625 L7.44433594,6.27636719 L9.88769531,6.27636719 L9.88769531,7 L6.3984375,7 Z M10.4414062,7 L10.4414062,2.70507812 L13.3857422,2.70507812 L13.3857422,3.43164062 L11.3085938,3.43164062 L11.3085938,4.44824219 L13.1015625,4.44824219 L13.1015625,5.17480469 L11.3085938,5.17480469 L11.3085938,7 L10.4414062,7 Z M13.8808594,5.60253906 L14.7246094,5.52050781 C14.7753909,5.80371235 14.8784172,6.01171809 15.0336914,6.14453125 C15.1889656,6.27734441 15.3984362,6.34375 15.6621094,6.34375 C15.9414076,6.34375 16.1518548,6.28466856 16.293457,6.16650391 C16.4350593,6.04833925 16.5058594,5.91015704 16.5058594,5.75195312 C16.5058594,5.65039012 16.4760745,5.5639652 16.4165039,5.49267578 C16.3569333,5.42138636 16.2529304,5.35937526 16.1044922,5.30664062 C16.0029292,5.2714842 15.7714862,5.20898482 15.4101562,5.11914062 C14.9453102,5.00390567 14.6191416,4.86230553 14.4316406,4.69433594 C14.1679674,4.45800663 14.0361328,4.16992357 14.0361328,3.83007812 C14.0361328,3.61132703 14.0981439,3.40673923 14.222168,3.21630859 C14.346192,3.02587795 14.5249012,2.88085987 14.7583008,2.78125 C14.9917004,2.68164013 15.2734358,2.63183594 15.6035156,2.63183594 C16.1425808,2.63183594 16.5483385,2.74999882 16.8208008,2.98632812 C17.0932631,3.22265743 17.2363281,3.53808396 17.25,3.93261719 L16.3828125,3.97070312 C16.3457029,3.7499989 16.2661139,3.59130908 16.144043,3.49462891 C16.021972,3.39794874 15.8388684,3.34960938 15.5947266,3.34960938 C15.3427722,3.34960938 15.1455085,3.40136667 15.0029297,3.50488281 C14.9111324,3.57128939 14.8652344,3.66015569 14.8652344,3.77148438 C14.8652344,3.87304738 14.9082027,3.95996058 14.9941406,4.03222656 C15.1035162,4.1240239 15.3691385,4.21972606 15.7910156,4.31933594 C16.2128927,4.41894581 16.5249013,4.52197212 16.7270508,4.62841797 C16.9292002,4.73486381 17.0874018,4.88037017 17.2016602,5.06494141 C17.3159185,5.24951264 17.3730469,5.47753771 17.3730469,5.74902344 C17.3730469,5.99511842 17.3046882,6.22558486 17.1679688,6.44042969 C17.0312493,6.65527451 16.8378919,6.81494088 16.5878906,6.91943359 C16.3378894,7.0239263 16.0263691,7.07617188 15.6533203,7.07617188 C15.1103488,7.07617188 14.6933608,6.95068485 14.4023438,6.69970703 C14.1113267,6.44872921 13.9375003,6.08301021 13.8808594,5.60253906 L13.8808594,5.60253906 Z M6.32519531,13 L6.32519531,8.70507812 L7.71679688,8.70507812 C8.24414326,8.70507812 8.58788982,8.72656229 8.74804688,8.76953125 C8.99414186,8.8339847 9.20019448,8.97412001 9.36621094,9.18994141 C9.53222739,9.4057628 9.61523438,9.6845686 9.61523438,10.0263672 C9.61523438,10.2900404 9.56738329,10.5117179 9.47167969,10.6914062 C9.37597608,10.8710946 9.25439527,11.0122065 9.10693359,11.1147461 C8.95947192,11.2172857 8.80957107,11.2851561 8.65722656,11.3183594 C8.45019428,11.3593752 8.15039259,11.3798828 7.7578125,11.3798828 L7.19238281,11.3798828 L7.19238281,13 L6.32519531,13 Z M7.19238281,9.43164062 L7.19238281,10.6503906 L7.66699219,10.6503906 C8.00879077,10.6503906 8.23730411,10.6279299 8.35253906,10.5830078 C8.46777401,10.5380857 8.55810514,10.4677739 8.62353516,10.3720703 C8.68896517,10.2763667 8.72167969,10.1650397 8.72167969,10.0380859 C8.72167969,9.88183516 8.67578171,9.7529302 8.58398438,9.65136719 C8.49218704,9.54980418 8.37597727,9.48632825 8.23535156,9.4609375 C8.13183542,9.44140615 7.92382969,9.43164062 7.61132812,9.43164062 L7.19238281,9.43164062 Z M13.7548828,13 L12.8115234,13 L12.4365234,12.0244141 L10.7197266,12.0244141 L10.3652344,13 L9.4453125,13 L11.1181641,8.70507812 L12.0351562,8.70507812 L13.7548828,13 Z M12.1582031,11.3007812 L11.5664062,9.70703125 L10.9863281,11.3007812 L12.1582031,11.3007812 Z M14.2177734,13 L14.2177734,8.70507812 L16.0429688,8.70507812 C16.5019554,8.70507812 16.8354482,8.74365196 17.043457,8.82080078 C17.2514659,8.8979496 17.4179681,9.03515526 17.5429688,9.23242188 C17.6679694,9.42968849 17.7304688,9.65527217 17.7304688,9.90917969 C17.7304688,10.2314469 17.6357431,10.4975575 17.4462891,10.7075195 C17.256835,10.9174815 16.9736347,11.0498044 16.5966797,11.1044922 C16.7841806,11.2138677 16.9389642,11.3339837 17.0610352,11.4648438 C17.1831061,11.5957038 17.3476552,11.8281233 17.5546875,12.1621094 L18.0791016,13 L17.0419922,13 L16.4150391,12.0654297 C16.1923817,11.7314436 16.0400395,11.5209965 15.9580078,11.434082 C15.8759762,11.3471675 15.789063,11.2875978 15.6972656,11.2553711 C15.6054683,11.2231444 15.4599619,11.2070312 15.2607422,11.2070312 L15.0849609,11.2070312 L15.0849609,13 L14.2177734,13 Z M15.0849609,10.5214844 L15.7265625,10.5214844 C16.1425802,10.5214844 16.4023432,10.5039064 16.5058594,10.46875 C16.6093755,10.4335936 16.6904294,10.3730473 16.7490234,10.2871094 C16.8076175,10.2011714 16.8369141,10.0937506 16.8369141,9.96484375 C16.8369141,9.82031178 16.7983402,9.70361373 16.7211914,9.61474609 C16.6440426,9.52587846 16.535157,9.46972668 16.3945312,9.44628906 C16.3242184,9.43652339 16.113283,9.43164062 15.7617188,9.43164062 L15.0849609,9.43164062 L15.0849609,10.5214844 Z" id="ZFS" opacity="0.803171642" fill-opacity="0.600000024" fill="#000000" sketch:type="MSShapeGroup"></path>
            </g>
        </g>
    </g>
</svg>