<?xml version="1.0" encoding="UTF-8" standalone="no"?>
<svg width="24px" height="24px" viewBox="0 0 24 24" version="1.1" xmlns="http://www.w3.org/2000/svg" xmlns:xlink="http://www.w3.org/1999/xlink" xmlns:sketch="http://www.bohemiancoding.com/sketch/ns">
    <!-- Generator: Sketch 3.2.2 (9983) - http://www.bohemiancoding.com/sketch -->
    <title>tfre_db_datalink_stub</title>
    <desc>Created with Sketch.</desc>
    <defs></defs>
    <g id="ADC" stroke="none" stroke-width="1" fill="none" fill-rule="evenodd" sketch:type="MSPage">
        <g id="adc_services" sketch:type="MSArtboardGroup" transform="translate(-203.000000, -87.000000)">
            <g id="tfre_db_datalink_stub" sketch:type="MSLayerGroup" transform="translate(203.000000, 87.000000)">
                <g id="Stub" transform="translate(0.500000, 10.000000)">
                    <g id="h2" transform="translate(0.000000, 5.148918)"></g>
                    <g id="h3" transform="translate(8.030571, 5.148918)"></g>
                    <g id="h4" transform="translate(16.061142, 5.148918)"></g>
                    <g id="wire" transform="translate(2.849558, 0.507082)"></g>
                    <path d="M6.60890105,8.93228684 C6.60890105,9.36561587 6.26669509,9.71812235 5.84418343,9.71812235 L0.764717619,9.71812235 C0.342205953,9.71812235 0,9.36588892 0,8.93228684 L0,5.8599376 C0,5.42578942 0.342205953,5.07382904 0.764717619,5.07382904 L5.84418343,5.07382904 C6.26669509,5.07382904 6.60890105,5.42578942 6.60890105,5.8599376 L6.60890105,8.93228684 L6.60890105,8.93228684 Z" id="path3045" opacity="0.792910448" fill-opacity="0.600000024" fill="#000000" sketch:type="MSShapeGroup"></path>
                    <path d="M14.6861014,8.93228684 C14.6861014,9.36561587 14.3438954,9.71812235 13.9213837,9.71812235 L8.84217699,9.71812235 C8.41966533,9.71812235 8.07745937,9.36588892 8.07745937,8.93228684 L8.07745937,5.8599376 C8.07745937,5.42578942 8.41966533,5.07382904 8.84217699,5.07382904 L13.9213837,5.07382904 C14.3438954,5.07382904 14.6861014,5.42578942 14.6861014,5.8599376 L14.6861014,8.93228684 L14.6861014,8.93228684 Z" id="path3047" opacity="0.595557369" fill-opacity="0.600000024" fill="#000000" sketch:type="MSShapeGroup"></path>
                    <path d="M22.7638198,8.93228684 C22.7638198,9.36561587 22.4216138,9.71812235 21.9991022,9.71812235 L16.9196364,9.71812235 C16.4971247,9.71812235 16.1551778,9.36588892 16.1551778,8.93228684 L16.1551778,5.8599376 C16.1551778,5.42578942 16.4971247,5.07382904 16.9196364,5.07382904 L21.9988431,5.07382904 C22.4213548,5.07382904 22.7635607,5.42578942 22.7635607,5.8599376 L22.7635607,8.93228684 L22.7638198,8.93228684 Z" id="path3049" opacity="0.400478078" fill-opacity="0.600000024" fill="#000000" sketch:type="MSShapeGroup"></path>
                    <path d="M10.9933337,2.07301868 L2.9158745,2.07301868 L2.9158745,4.59872349 L3.69302655,4.59872349 L3.69302655,2.89216619 L10.9933339,2.89216619 L10.9933339,4.59872349 L11.7704859,4.59872349 L11.7704859,2.89216619 L19.0710523,2.89216619 L19.0710523,4.59872349 L19.8482043,4.59872349 L19.8482043,2.07301868 L11.7704859,2.07301868 L10.9933337,2.07301868 Z" id="polygon3053" opacity="0.492362407" fill-opacity="0.600000024" fill="#000000" sketch:type="MSShapeGroup"></path>
                </g>
                <path d="M2.26904297,10 L2.26904297,5.70507812 L5.45361328,5.70507812 L5.45361328,6.43164062 L3.13623047,6.43164062 L3.13623047,7.38378906 L5.29248047,7.38378906 L5.29248047,8.10742188 L3.13623047,8.10742188 L3.13623047,9.27636719 L5.53564453,9.27636719 L5.53564453,10 L2.26904297,10 Z M6.05126953,8.60253906 L6.89501953,8.52050781 C6.94580104,8.80371235 7.04882735,9.01171809 7.20410156,9.14453125 C7.35937578,9.27734441 7.56884634,9.34375 7.83251953,9.34375 C8.1118178,9.34375 8.32226492,9.28466856 8.46386719,9.16650391 C8.60546946,9.04833925 8.67626953,8.91015704 8.67626953,8.75195312 C8.67626953,8.65039012 8.64648467,8.5639652 8.58691406,8.49267578 C8.52734345,8.42138636 8.42334059,8.35937526 8.27490234,8.30664062 C8.17333934,8.2714842 7.94189634,8.20898482 7.58056641,8.11914062 C7.11572033,8.00390567 6.78955172,7.86230553 6.60205078,7.69433594 C6.33837759,7.45800663 6.20654297,7.16992357 6.20654297,6.83007812 C6.20654297,6.61132703 6.26855407,6.40673923 6.39257812,6.21630859 C6.51660218,6.02587795 6.69531133,5.88085987 6.92871094,5.78125 C7.16211054,5.68164013 7.44384601,5.63183594 7.77392578,5.63183594 C8.31299098,5.63183594 8.71874864,5.74999882 8.99121094,5.98632812 C9.26367324,6.22265743 9.40673821,6.53808396 9.42041016,6.93261719 L8.55322266,6.97070312 C8.5161131,6.7499989 8.43652405,6.59130908 8.31445312,6.49462891 C8.1923822,6.39794874 8.00927856,6.34960938 7.76513672,6.34960938 C7.51318233,6.34960938 7.31591868,6.40136667 7.17333984,6.50488281 C7.08154251,6.57128939 7.03564453,6.66015569 7.03564453,6.77148438 C7.03564453,6.87304738 7.07861285,6.95996058 7.16455078,7.03222656 C7.27392633,7.1240239 7.53954867,7.21972606 7.96142578,7.31933594 C8.38330289,7.41894581 8.69531149,7.52197212 8.89746094,7.62841797 C9.09961039,7.73486381 9.25781193,7.88037017 9.37207031,8.06494141 C9.4863287,8.24951264 9.54345703,8.47753771 9.54345703,8.74902344 C9.54345703,8.99511842 9.47509834,9.22558486 9.33837891,9.44042969 C9.20165947,9.65527451 9.00830203,9.81494088 8.75830078,9.91943359 C8.50829953,10.0239263 8.19677921,10.0761719 7.82373047,10.0761719 C7.280759,10.0761719 6.86377099,9.95068485 6.57275391,9.69970703 C6.28173683,9.44872921 6.10791044,9.08301021 6.05126953,8.60253906 L6.05126953,8.60253906 Z M11.2397461,10 L11.2397461,6.43164062 L9.96533203,6.43164062 L9.96533203,5.70507812 L13.378418,5.70507812 L13.378418,6.43164062 L12.1069336,6.43164062 L12.1069336,10 L11.2397461,10 Z M13.9321289,5.70507812 L14.7993164,5.70507812 L14.7993164,8.03125 C14.7993164,8.40039247 14.8100585,8.63964789 14.831543,8.74902344 C14.8686525,8.92480557 14.9570306,9.06591744 15.0966797,9.17236328 C15.2363288,9.27880913 15.4272449,9.33203125 15.6694336,9.33203125 C15.9155286,9.33203125 16.1010736,9.28173878 16.2260742,9.18115234 C16.3510748,9.0805659 16.4262694,8.95703198 16.4516602,8.81054688 C16.4770509,8.66406177 16.4897461,8.42090014 16.4897461,8.08105469 L16.4897461,5.70507812 L17.3569336,5.70507812 L17.3569336,7.9609375 C17.3569336,8.47656508 17.3334963,8.84081925 17.2866211,9.05371094 C17.2397459,9.26660263 17.1533209,9.44628833 17.0273438,9.59277344 C16.9013666,9.73925854 16.7329112,9.8559566 16.5219727,9.94287109 C16.3110341,10.0297856 16.0356462,10.0732422 15.6958008,10.0732422 C15.2856425,10.0732422 14.9746104,10.0258794 14.7626953,9.93115234 C14.5507802,9.83642531 14.3833014,9.71337966 14.2602539,9.56201172 C14.1372064,9.41064377 14.0561525,9.25195396 14.0170898,9.0859375 C13.9604489,8.83984252 13.9321289,8.4765649 13.9321289,7.99609375 L13.9321289,5.70507812 Z M18.2739258,5.70507812 L19.9907227,5.70507812 C20.3305681,5.70507812 20.5839835,5.71923814 20.7509766,5.74755859 C20.9179696,5.77587905 21.0673822,5.83496049 21.1992188,5.92480469 C21.3310553,6.01464889 21.4409175,6.1342766 21.5288086,6.28369141 C21.6166997,6.43310622 21.6606445,6.60058501 21.6606445,6.78613281 C21.6606445,6.98730569 21.6064459,7.17187416 21.4980469,7.33984375 C21.3896479,7.50781334 21.2426767,7.63378864 21.0571289,7.71777344 C21.318849,7.79394569 21.5200188,7.92382721 21.6606445,8.10742188 C21.8012702,8.29101654 21.871582,8.5068347 21.871582,8.75488281 C21.871582,8.95019629 21.8261723,9.1401358 21.7353516,9.32470703 C21.6445308,9.50927827 21.5205086,9.65673773 21.3632812,9.76708984 C21.2060539,9.87744196 21.0122082,9.94531237 20.7817383,9.97070312 C20.6372063,9.9863282 20.288577,9.99609373 19.7358398,10 L18.2739258,10 L18.2739258,5.70507812 Z M19.1411133,6.41992188 L19.1411133,7.41308594 L19.7094727,7.41308594 C20.047365,7.41308594 20.2573238,7.40820317 20.3393555,7.3984375 C20.4877937,7.38085929 20.6044918,7.32959027 20.6894531,7.24462891 C20.7744145,7.15966754 20.8168945,7.04785226 20.8168945,6.90917969 C20.8168945,6.77636652 20.7802738,6.66845745 20.7070312,6.58544922 C20.6337887,6.50244099 20.5249031,6.45214853 20.3803711,6.43457031 C20.2944332,6.42480464 20.0473653,6.41992188 19.6391602,6.41992188 L19.1411133,6.41992188 Z M19.1411133,8.12792969 L19.1411133,9.27636719 L19.9438477,9.27636719 C20.2563492,9.27636719 20.4545894,9.26757821 20.5385742,9.25 C20.6674811,9.22656238 20.7724605,9.16943405 20.8535156,9.07861328 C20.9345707,8.98779251 20.9750977,8.8662117 20.9750977,8.71386719 C20.9750977,8.58496029 20.943848,8.47558639 20.8813477,8.38574219 C20.8188473,8.29589799 20.7285162,8.23046896 20.6103516,8.18945312 C20.4921869,8.14843729 20.2358418,8.12792969 19.8413086,8.12792969 L19.1411133,8.12792969 Z" id="ESTUB" opacity="0.803171642" fill-opacity="0.600000024" fill="#000000" sketch:type="MSShapeGroup"></path>
            </g>
        </g>
    </g>
</svg>