<?xml version="1.0" encoding="UTF-8" standalone="no"?>
<svg width="25px" height="24px" viewBox="0 0 25 24" version="1.1" xmlns="http://www.w3.org/2000/svg" xmlns:xlink="http://www.w3.org/1999/xlink" xmlns:sketch="http://www.bohemiancoding.com/sketch/ns">
    <!-- Generator: Sketch 3.2.2 (9983) - http://www.bohemiancoding.com/sketch -->
    <title>tfre_db_datalink_ipmp</title>
    <desc>Created with Sketch.</desc>
    <defs></defs>
    <g id="ADC" stroke="none" stroke-width="1" fill="none" fill-rule="evenodd" sketch:type="MSPage">
        <g id="adc_services" sketch:type="MSArtboardGroup" transform="translate(-127.000000, -87.000000)">
            <g id="tfre_db_datalink_ipmp" sketch:type="MSLayerGroup" transform="translate(127.220703, 87.000000)">
                <g id="ether-2" transform="translate(13.000000, 12.000000)" sketch:type="MSShapeGroup">
                    <g id="ether">
                        <path d="M9.65047865,2.23413123 L9.98698652,2.23413123 L9.99172809,5.46549626 L9.64100225,5.46549626 L9.6315191,6.80373832 L2.32314607,6.80373832 L2.32314607,0.863249032 L9.6315191,0.863249032 L9.6504764,2.23413123 L9.65047865,2.23413123 Z" id="2" fill-opacity="0.25" fill="#000000"></path>
                        <path d="M6.00379117,2.45013786 L4.81334178,2.8690185 L4.81334178,5.09942199 L6.00379117,5.50198263 L6.00379117,7.9771865 L1.02793186,7.9880665 L0.608544288,7.9663065 L0.505881657,7.92278637 L0.379191669,7.81942625 L0.27652909,7.66166599 L0.178235088,7.4168656 L0.117074434,7.14486521 L0.0799411375,6.90006483 L0.0559137286,6.56278431 L0.0537295176,1.63957657 L0.0493610955,1.43829631 L0.0580983539,1.20437592 L0.0908630213,0.932375406 L0.119259059,0.790935277 L0.180419713,0.57333489 L0.272160771,0.366614568 L0.39448213,0.181654271 L0.558305415,0.0402140516 L0.695916976,-0.0359460645 L1.05851253,-0.0141860258 L3.86098278,-0.0141860258 L6.00379168,-0.0359460645 L6.00379168,2.45013786 L6.00379117,2.45013786 Z" id="3" opacity="0.697936101" fill="#000000"></path>
                        <path d="M2.63912844,5.02440122 L4.31531821,5.02440122 L4.31531821,2.85526684 L2.58904914,2.85526684 C2.58904914,2.85526684 1.75242698,2.87642909 1.77010213,3.93101638 C1.77010213,4.98560368 2.63912844,5.02440122 2.63912844,5.02440122 L2.63912844,5.02440122 Z" id="4" opacity="0.504897388" fill="#000000"></path>
                        <path id="16" stroke-opacity="0.600000024" stroke="#000000" d="M6.60295393,6.80917832 L6.60295393,0.868689032"></path>
                        <path id="17" opacity="0.5" fill-opacity="0.600000024" fill="#000000" d="M8.54616629,1.86965058 L9.6267809,1.86965058 L9.6267809,1.49973006 L8.54616629,1.49973006 L8.54616629,1.86965058 L8.54616629,1.86965058 Z"></path>
                        <path id="18" opacity="0.5" fill-opacity="0.600000024" fill="#000000" d="M8.54616629,2.48437161 L9.6267809,2.48437161 L9.6267809,2.11989097 L8.54616629,2.11989097 L8.54616629,2.48437161 L8.54616629,2.48437161 Z"></path>
                        <path id="19" opacity="0.5" fill-opacity="0.600000024" fill="#000000" d="M8.54616629,3.09909252 L9.6267809,3.09909252 L9.6267809,2.734612 L8.54616629,2.734612 L8.54616629,3.09909252 L8.54616629,3.09909252 Z"></path>
                        <path id="20" opacity="0.5" fill-opacity="0.600000024" fill="#000000" d="M8.54616629,3.71925355 L9.6267809,3.71925355 L9.6267809,3.3493329 L8.54616629,3.3493329 L8.54616629,3.71925355 L8.54616629,3.71925355 Z"></path>
                        <path id="21" opacity="0.5" fill-opacity="0.600000024" fill="#000000" d="M8.54616629,4.33397445 L9.6267809,4.33397445 L9.6267809,3.96405394 L8.54616629,3.96405394 L8.54616629,4.33397445 L8.54616629,4.33397445 Z"></path>
                        <path id="22" opacity="0.5" fill-opacity="0.600000024" fill="#000000" d="M8.54616629,4.95413548 L9.6267809,4.95413548 L9.6267809,4.57877484 L8.54616629,4.57877484 L8.54616629,4.95413548 L8.54616629,4.95413548 Z"></path>
                        <path id="23" opacity="0.5" fill-opacity="0.600000024" fill="#000000" d="M8.54616629,5.56885639 L9.6267809,5.56885639 L9.6267809,5.20437587 L8.54616629,5.20437587 L8.54616629,5.56885639 L8.54616629,5.56885639 Z"></path>
                        <path id="24" opacity="0.5" fill-opacity="0.600000024" fill="#000000" d="M8.54616629,6.18357729 L9.6267809,6.18357729 L9.6267809,5.81365677 L8.54616629,5.81365677 L8.54616629,6.18357729 L8.54616629,6.18357729 Z"></path>
                    </g>
                </g>
                <g id="ether-7" transform="translate(7.000000, 16.000000) rotate(-180.000000) translate(-7.000000, -16.000000) translate(2.000000, 12.000000)" sketch:type="MSShapeGroup">
                    <g id="ether">
                        <path d="M9.65047865,2.23413123 L9.98698652,2.23413123 L9.99172809,5.46549626 L9.64100225,5.46549626 L9.6315191,6.80373832 L2.32314607,6.80373832 L2.32314607,0.863249032 L9.6315191,0.863249032 L9.6504764,2.23413123 L9.65047865,2.23413123 Z" id="2" fill-opacity="0.25" fill="#000000"></path>
                        <path d="M6.00379117,2.45013786 L4.81334178,2.8690185 L4.81334178,5.09942199 L6.00379117,5.50198263 L6.00379117,7.9771865 L1.02793186,7.9880665 L0.608544288,7.9663065 L0.505881657,7.92278637 L0.379191669,7.81942625 L0.27652909,7.66166599 L0.178235088,7.4168656 L0.117074434,7.14486521 L0.0799411375,6.90006483 L0.0559137286,6.56278431 L0.0537295176,1.63957657 L0.0493610955,1.43829631 L0.0580983539,1.20437592 L0.0908630213,0.932375406 L0.119259059,0.790935277 L0.180419713,0.57333489 L0.272160771,0.366614568 L0.39448213,0.181654271 L0.558305415,0.0402140516 L0.695916976,-0.0359460645 L1.05851253,-0.0141860258 L3.86098278,-0.0141860258 L6.00379168,-0.0359460645 L6.00379168,2.45013786 L6.00379117,2.45013786 Z" id="3" opacity="0.697936101" fill="#000000"></path>
                        <path d="M2.63912844,5.02440122 L4.31531821,5.02440122 L4.31531821,2.85526684 L2.58904914,2.85526684 C2.58904914,2.85526684 1.75242698,2.87642909 1.77010213,3.93101638 C1.77010213,4.98560368 2.63912844,5.02440122 2.63912844,5.02440122 L2.63912844,5.02440122 Z" id="4" opacity="0.504897388" fill="#000000"></path>
                        <path id="16" stroke-opacity="0.600000024" stroke="#000000" d="M6.60295393,6.80917832 L6.60295393,0.868689032"></path>
                        <path id="17" opacity="0.5" fill-opacity="0.600000024" fill="#000000" d="M8.54616629,1.86965058 L9.6267809,1.86965058 L9.6267809,1.49973006 L8.54616629,1.49973006 L8.54616629,1.86965058 L8.54616629,1.86965058 Z"></path>
                        <path id="18" opacity="0.5" fill-opacity="0.600000024" fill="#000000" d="M8.54616629,2.48437161 L9.6267809,2.48437161 L9.6267809,2.11989097 L8.54616629,2.11989097 L8.54616629,2.48437161 L8.54616629,2.48437161 Z"></path>
                        <path id="19" opacity="0.5" fill-opacity="0.600000024" fill="#000000" d="M8.54616629,3.09909252 L9.6267809,3.09909252 L9.6267809,2.734612 L8.54616629,2.734612 L8.54616629,3.09909252 L8.54616629,3.09909252 Z"></path>
                        <path id="20" opacity="0.5" fill-opacity="0.600000024" fill="#000000" d="M8.54616629,3.71925355 L9.6267809,3.71925355 L9.6267809,3.3493329 L8.54616629,3.3493329 L8.54616629,3.71925355 L8.54616629,3.71925355 Z"></path>
                        <path id="21" opacity="0.5" fill-opacity="0.600000024" fill="#000000" d="M8.54616629,4.33397445 L9.6267809,4.33397445 L9.6267809,3.96405394 L8.54616629,3.96405394 L8.54616629,4.33397445 L8.54616629,4.33397445 Z"></path>
                        <path id="22" opacity="0.5" fill-opacity="0.600000024" fill="#000000" d="M8.54616629,4.95413548 L9.6267809,4.95413548 L9.6267809,4.57877484 L8.54616629,4.57877484 L8.54616629,4.95413548 L8.54616629,4.95413548 Z"></path>
                        <path id="23" opacity="0.5" fill-opacity="0.600000024" fill="#000000" d="M8.54616629,5.56885639 L9.6267809,5.56885639 L9.6267809,5.20437587 L8.54616629,5.20437587 L8.54616629,5.56885639 L8.54616629,5.56885639 Z"></path>
                        <path id="24" opacity="0.5" fill-opacity="0.600000024" fill="#000000" d="M8.54616629,6.18357729 L9.6267809,6.18357729 L9.6267809,5.81365677 L8.54616629,5.81365677 L8.54616629,6.18357729 L8.54616629,6.18357729 Z"></path>
                    </g>
                </g>
                <path d="M2.92871094,4 L6.42089844,4 L7.76855469,7.65075034 L9.11035156,4 L12.5908203,4 L12.5908203,10 L10.4228516,10 L10.4228516,5.42428377 L8.74121094,10 L6.77832031,10 L5.10253906,5.42428377 L5.10253906,10 L2.92871094,10 L2.92871094,4 Z M14.2724609,4 L18.6845703,4 C19.6455126,4 20.365232,4.15961641 20.84375,4.47885402 C21.322268,4.79809164 21.5615234,5.2523845 21.5615234,5.84174625 C21.5615234,6.44747915 21.3007839,6.92087142 20.7792969,7.26193724 C20.2578099,7.60300307 19.4619194,7.77353342 18.3916016,7.77353342 L16.9384766,7.77353342 L16.9384766,10 L14.2724609,10 L14.2724609,4 Z M16.9384766,6.5579809 L17.5888672,6.5579809 C18.1005885,6.5579809 18.4599599,6.49590785 18.6669922,6.37175989 C18.8740245,6.24761193 18.9775391,6.08867764 18.9775391,5.89495225 C18.9775391,5.70668392 18.8876962,5.5470675 18.7080078,5.41609823 C18.5283194,5.28512895 18.1904322,5.21964529 17.6943359,5.21964529 L16.9384766,5.21964529 L16.9384766,6.5579809 Z" id="MP" fill-opacity="0.600000024" fill="#000000" sketch:type="MSShapeGroup"></path>
            </g>
        </g>
    </g>
</svg>