<?xml version="1.0" encoding="UTF-8" standalone="no"?>
<svg width="24px" height="24px" viewBox="0 0 24 24" version="1.1" xmlns="http://www.w3.org/2000/svg" xmlns:xlink="http://www.w3.org/1999/xlink" xmlns:sketch="http://www.bohemiancoding.com/sketch/ns">
    <!-- Generator: Sketch 3.2.2 (9983) - http://www.bohemiancoding.com/sketch -->
    <title>tfre_db_firewall_service</title>
    <desc>Created with Sketch.</desc>
    <defs></defs>
    <g id="ADC" stroke="none" stroke-width="1" fill="none" fill-rule="evenodd" sketch:type="MSPage">
        <g id="adc_services" sketch:type="MSArtboardGroup" transform="translate(-24.000000, -225.000000)">
            <g id="tfre_db_firewall_service" sketch:type="MSLayerGroup" transform="translate(24.000000, 225.000000)">
                <g id="firewall" transform="translate(1.000000, 1.000000)" sketch:type="MSShapeGroup">
                    <g id="security-3">
                        <path d="M11.56831,20.2905123 C10.3926522,20.0706515 9.61091204,18.9117436 9.82310833,17.7066835 C9.96848537,16.8886991 10.5339659,16.2448872 11.2653659,15.9930213 L11.9529722,14.6784946 L10.947523,13.5993675 C10.8574524,13.5944972 10.7653502,13.5835969 10.6743767,13.5659709 C10.1097991,13.4616066 9.61587833,13.1352941 9.28652259,12.6454775 C8.95626389,12.1579802 8.83120352,11.5679739 8.93391556,10.9837655 C9.12195759,9.92411976 10.0167939,9.15576639 11.0617478,9.15576639 C11.189517,9.15576639 11.317512,9.16713051 11.4482159,9.19148218 C11.9936056,9.29259962 12.4748848,9.60940333 12.7995,10.0553869 L14.2338567,10.3218638 L14.9343302,8.98252161 C14.8539665,8.67105208 14.8383904,8.34126081 14.8945998,8.02028252 C15.0824161,6.96063673 15.9763494,6.19228336 17.0215291,6.19228336 C17.1483954,6.19228336 17.2772933,6.20434324 17.4079972,6.22753532 C17.4456959,6.23495678 17.4815887,6.25095931 17.5192874,6.26000422 L17.5192874,4.1761965 C17.5192874,2.07569049 13.5977193,0.373160447 8.7596437,0.373160447 C3.92179389,0.373392368 0,2.07615433 0,4.17666034 L0,11.0447607 C0,14.6300232 3.66873852,19.7137255 8.7596437,21.88288 C9.76215833,21.4561459 10.7073348,20.911596 11.5841119,20.2919039 C11.5791456,20.2909762 11.5741793,20.29144 11.56831,20.2905123 L11.56831,20.2905123 Z" id="path3000" fill="#417505"></path>
                        <path d="M22.3979963,12.7159814 C22.2402035,12.4815096 22.0018213,12.3244993 21.729578,12.2737086 C21.3130863,12.1950875 20.918943,12.3831752 20.6981685,12.6995151 L17.9667056,12.1911448 L17.5861067,9.30837023 C17.8233602,9.15414295 17.9949231,8.90436433 18.0470693,8.60704196 C18.0965065,8.32595404 18.0364594,8.04161923 17.877538,7.8073793 C17.7197452,7.57313936 17.4822659,7.41589711 17.2091196,7.36557031 C16.6328035,7.25958254 16.1023128,7.65454354 16.0005037,8.22576428 C15.9501635,8.51589711 16.0210461,8.80695762 16.1838052,9.03516762 L14.8374874,11.6090238 L12.0644881,11.0925364 C11.9608731,10.7112587 11.6529628,10.4034999 11.2479839,10.3283576 C10.677537,10.2228336 10.14208,10.6180266 10.0411739,11.1890154 C9.93846185,11.769281 10.3152231,12.3258908 10.8779948,12.4300232 C11.0513637,12.4629559 11.219992,12.4474172 11.3795907,12.3922201 L13.3302165,14.4866962 L11.9965402,17.0350411 C11.4764335,17.012081 11.0222431,17.3882564 10.929238,17.9121653 C10.8276546,18.4908075 11.2032872,19.0478811 11.7669619,19.1536369 C12.342375,19.2591609 12.8739944,18.8630403 12.9749006,18.2929791 C12.9866391,18.2301286 12.9913796,18.1679739 12.9902509,18.1051233 L15.5298343,16.8478811 L17.5028083,18.9669408 C17.455177,19.0604048 17.4215417,19.1624499 17.402128,19.2695973 C17.3526907,19.5506852 17.4118348,19.8343243 17.5716593,20.069028 C17.7283233,20.3028041 17.9667056,20.4602783 18.2398519,20.510837 C18.3028335,20.522665 18.3649122,20.5286949 18.4258622,20.5286949 C18.9292641,20.5286949 19.3595259,20.1594771 19.4484678,19.6511069 C19.497905,19.3704828 19.437858,19.0868438 19.2789365,18.85214 C19.1579394,18.6730972 18.9904398,18.5385832 18.7956256,18.462977 L18.39471,15.4289901 L20.9254894,14.1773139 C21.0516785,14.2768079 21.1997644,14.3454565 21.3584602,14.3753742 C21.4214419,14.3874341 21.4826176,14.3927683 21.5435676,14.3927683 C22.0462922,14.3927683 22.4763283,14.0230867 22.5652702,13.5151803 C22.6158361,13.2338604 22.556692,12.9502214 22.3979963,12.7159814 L22.3979963,12.7159814 Z" id="path3002" fill-opacity="0.850000143" fill="#E51111"></path>
                        <g id="fire" transform="translate(0.627058, 1.397132)">
                            <g transform="translate(0.001754, 0.006598)">
                                <path d="M4.39503559,5.89429787 C4.67012592,7.14794488 4.37469479,8.41290855 4.37469479,8.41290855 C3.84827786,7.98030134 3.53152551,7.4773622 3.45745207,7.16413582 C3.07698909,7.692768 3.28218174,9.49906618 3.45745207,10.0665285 C2.98542886,9.78578156 3.06615314,9.6836106 2.61839427,8.54654105 C2.3393509,10.0445642 2.92141109,11.6326994 3.45752468,12.5240979 C3.90590618,12.5240979 4.08805028,12.5240977 4.56326739,12.5240977 C5.75752347,11.8308189 6.64243491,10.3596022 6.78253641,8.76114301 C6.50431888,8.87584757 6.41569871,9.32523196 5.61294069,9.39046654 C5.82246614,8.94881898 6.13162975,7.63034079 6.05916688,7.00285521 C5.79484374,7.67783149 5.76045214,8.13389525 5.27922452,8.19633173 C5.16993547,7.15775916 4.81495422,6.39361253 4.39503559,5.89429787 L4.39503559,5.89429787 Z" id="path3918" fill-opacity="0.299932065" fill="#FFFFFF"></path>
                                <path d="M4.32829235,0.00393498359 C3.07416131,0.65150668 3.8818713,2.1401017 3.45752468,3.38516611 C3.45752468,3.38516611 2.99690738,1.99714594 2.10542484,2.10321608 C2.24000992,2.34015075 2.4346278,2.5766104 2.55419364,2.81548392 C2.97600701,3.6581992 2.69340095,5.15306534 2.69340095,5.15306534 C2.69340095,5.15306534 1.69018724,4.27039881 0.892604939,4.27095915 C1.31272148,5.15883174 1.85932258,5.89901247 1.4837593,6.98178998 C1.37419462,6.92083545 0.590384254,6.62957167 0.00841600396,6.58352562 C1.37108655,8.8650072 0.0369226112,12.137183 3.45745207,12.5482763 C2.90876481,11.6686091 2.33230424,10.082307 2.61832165,8.5468446 C3.06608052,9.68391415 2.98550148,9.78559682 3.45752468,10.0663438 C3.28225436,9.49888144 3.07706171,7.69284805 3.45752468,7.16421587 C3.53159813,7.47744224 3.84807568,7.9800612 4.37449261,8.4126684 C4.37449261,8.4126684 4.66995994,7.14785661 4.39486961,5.8942096 C4.81478824,6.39352426 5.17005975,7.15761381 5.27934881,8.19618638 C5.76057642,8.1337499 5.79513197,7.67796884 6.05945511,7.00299255 C6.13191797,7.63047814 5.82271816,8.94863423 5.61319271,9.39028179 C6.41595073,9.32504722 6.50409777,8.87568263 6.7823153,8.76097807 C6.64221381,10.3594373 5.75201803,11.8549963 4.55776195,12.5482751 C6.74255434,12.5240977 7.35648876,12.09391 7.95189678,10.6442848 C8.09886269,10.2864705 8.14932698,9.87991361 8.30090577,9.45750682 C8.62834314,8.54503173 8.93350002,8.19389574 9.09156386,7.24914874 C8.75205321,7.62961741 8.02523186,7.76120196 8.02523186,7.76120196 C8.02523186,7.76120196 8.47655016,5.44937951 7.50018508,4.8114125 C7.51174659,5.20141024 7.608451,6.34791742 7.07747794,6.40578654 C7.09124743,5.16624438 7.14586796,2.85533216 5.63773104,2.44157495 C5.66612536,2.64153194 5.72545275,2.77961932 5.76803925,2.91488417 C5.80757342,3.07089595 5.94517463,3.59866362 5.74769846,3.62649373 C5.41068688,2.41408505 4.70582849,2.55477019 4.32829235,0.00393498359 L4.32829235,0.00393498359 Z" id="path2969" fill-opacity="0.391021286" fill="#000000"></path>
                            </g>
                        </g>
                    </g>
                </g>
            </g>
        </g>
    </g>
</svg>